<svg width="41" height="41" viewBox="0 0 41 41" fill="none" xmlns="http://www.w3.org/2000/svg">
<mask id="mask0_145_1995" style="mask-type:luminance" maskUnits="userSpaceOnUse" x="1" y="1" width="39" height="39">
<path d="M20.4994 37.5846C22.7432 37.5874 24.9654 37.1468 27.0384 36.2881C29.1115 35.4294 30.9944 34.1696 32.579 32.5809C34.1676 30.9963 35.4274 29.1134 36.2861 27.0404C37.1448 24.9674 37.5855 22.7451 37.5827 20.5013C37.5855 18.2575 37.1448 16.0352 36.2861 13.9622C35.4274 11.8892 34.1676 10.0063 32.579 8.42169C30.9944 6.83308 29.1115 5.57323 27.0384 4.71453C24.9654 3.85584 22.7432 3.41521 20.4994 3.41798C18.2555 3.41521 16.0333 3.85584 13.9603 4.71453C11.8873 5.57323 10.0044 6.83308 8.41974 8.42169C6.83112 10.0063 5.57128 11.8892 4.71258 13.9622C3.85388 16.0352 3.41326 18.2575 3.41603 20.5013C3.41326 22.7451 3.85388 24.9674 4.71258 27.0404C5.57128 29.1134 6.83112 30.9963 8.41974 32.5809C10.0044 34.1696 11.8873 35.4294 13.9603 36.2881C16.0333 37.1468 18.2555 37.5874 20.4994 37.5846Z" fill="white" stroke="white" stroke-width="3.11957" stroke-linejoin="round"/>
<path d="M13.6641 20.499L18.7891 25.624L29.0391 15.374" stroke="black" stroke-width="3.11957" stroke-linecap="round" stroke-linejoin="round"/>
</mask>
<g mask="url(#mask0_145_1995)">
<path d="M-0.00195312 -0.000976562H40.998V40.999H-0.00195312V-0.000976562Z" fill="white"/>
</g>
</svg>
