<svg width="36" height="36" viewBox="0 0 36 36" fill="none" xmlns="http://www.w3.org/2000/svg">
<path d="M13.326 7.9714C14.2009 5.41104 17.7386 5.3335 18.7759 7.73877L18.8636 7.97286L20.0443 11.4257C20.3149 12.2175 20.7522 12.9422 21.3266 13.5507C21.901 14.1592 22.5993 14.6374 23.3743 14.9531L23.6918 15.0716L27.1446 16.2509C29.7049 17.1258 29.7825 20.6635 27.3787 21.7008L27.1446 21.7886L23.6918 22.9693C22.8996 23.2397 22.1747 23.6768 21.566 24.2513C20.9572 24.8257 20.4787 25.5241 20.1628 26.2992L20.0443 26.6152L18.8651 30.0695C17.9902 32.6299 14.4525 32.7074 13.4167 30.3036L13.326 30.0695L12.1467 26.6167C11.8763 25.8245 11.4391 25.0996 10.8647 24.4909C10.2903 23.8821 9.59192 23.4036 8.8168 23.0878L8.50077 22.9693L5.04795 21.79C2.48612 20.9151 2.40858 17.3774 4.81386 16.3416L5.04795 16.2509L8.50077 15.0716C9.29263 14.8011 10.0173 14.3638 10.6258 13.7894C11.2343 13.2149 11.7125 12.5167 12.0282 11.7417L12.1467 11.4257L13.326 7.9714ZM27.8 2.92676C28.0737 2.92676 28.342 3.00354 28.5742 3.14837C28.8065 3.2932 28.9934 3.50028 29.1139 3.74607L29.1841 3.91725L29.6962 5.41835L31.1987 5.93043C31.473 6.02362 31.7135 6.19614 31.8896 6.42613C32.0658 6.65613 32.1697 6.93323 32.1882 7.22234C32.2067 7.51145 32.1389 7.79953 31.9935 8.05009C31.8481 8.30065 31.6316 8.5024 31.3714 8.62978L31.1987 8.7L29.6976 9.21207L29.1856 10.7146C29.0922 10.9889 28.9195 11.2292 28.6895 11.4052C28.4594 11.5812 28.1822 11.6849 27.8931 11.7033C27.604 11.7216 27.316 11.6537 27.0655 11.5082C26.8151 11.3626 26.6134 11.146 26.4862 10.8858L26.416 10.7146L25.9039 9.21354L24.4013 8.70147C24.127 8.60828 23.8866 8.43575 23.7104 8.20576C23.5343 7.97576 23.4304 7.69866 23.4119 7.40955C23.3934 7.12045 23.4612 6.83236 23.6066 6.5818C23.752 6.33124 23.9685 6.12949 24.2287 6.00212L24.4013 5.93189L25.9024 5.41982L26.4145 3.91725C26.5132 3.62819 26.6998 3.37725 26.9483 3.19962C27.1968 3.02199 27.4946 2.92657 27.8 2.92676Z" fill="#999999"/>
<path d="M13.326 7.97243C14.2009 5.41207 17.7386 5.33453 18.7759 7.7398L18.8636 7.97389L20.0443 11.4267C20.3149 12.2186 20.7522 12.9432 21.3266 13.5517C21.901 14.1602 22.5993 14.6385 23.3743 14.9542L23.6918 15.0727L27.1446 16.2519C29.7049 17.1268 29.7825 20.6645 27.3787 21.7018L27.1446 21.7896L23.6918 22.9703C22.8996 23.2407 22.1747 23.6779 21.566 24.2523C20.9572 24.8267 20.4787 25.5251 20.1628 26.3002L20.0443 26.6162L18.8651 30.0705C17.9902 32.6309 14.4525 32.7084 13.4167 30.3046L13.326 30.0705L12.1467 26.6177C11.8763 25.8256 11.4391 25.1007 10.8647 24.4919C10.2903 23.8831 9.59192 23.4047 8.8168 23.0888L8.50077 22.9703L5.04795 21.7911C2.48612 20.9161 2.40858 17.3785 4.81386 16.3426L5.04795 16.2519L8.50077 15.0727C9.29263 14.8021 10.0173 14.3648 10.6258 13.7904C11.2343 13.216 11.7125 12.5177 12.0282 11.7427L12.1467 11.4267L13.326 7.97243Z" fill="#CCCCCC"/>
</svg>
