<svg width="357" height="41" viewBox="0 0 357 41" fill="none" xmlns="http://www.w3.org/2000/svg">
<mask id="path-1-inside-1_11_6376" fill="white">
<path d="M0 0.00683594H40.4574V40.4642H0L0 0.00683594Z"/>
</mask>
<path d="M40.4574 0.00683594H39.3804V40.4642H40.4574H41.5344V0.00683594H40.4574Z" fill="#E5E7EB" mask="url(#path-1-inside-1_11_6376)"/>
<path d="M28.6969 18.1908C29.1068 20.2024 28.8146 22.2936 27.8693 24.1159C26.9239 25.9381 25.3823 27.3812 23.5018 28.2044C21.6212 29.0277 19.5152 29.1813 17.535 28.6397C15.5549 28.0982 13.8202 26.8941 12.6203 25.2284C11.4205 23.5627 10.8279 21.536 10.9415 19.4862C11.0551 17.4365 11.8679 15.4876 13.2444 13.9647C14.621 12.4417 16.478 11.4367 18.5059 11.1172C20.5338 10.7977 22.6099 11.1831 24.388 12.209" stroke="white" stroke-width="1.79498" stroke-linecap="round" stroke-linejoin="round"/>
<path d="M17.2109 19.0891L19.9034 21.7816L28.8783 12.8066" stroke="white" stroke-width="1.79498" stroke-linecap="round" stroke-linejoin="round"/>
<mask id="path-5-inside-2_11_6376" fill="white">
<path d="M40.457 0.00683594H79.7906V40.4642H40.457V0.00683594Z"/>
</mask>
<path d="M79.7906 0.00683594H78.7136V40.4642H79.7906H80.8676V0.00683594H79.7906Z" fill="#E5E7EB" mask="url(#path-5-inside-2_11_6376)"/>
<g clip-path="url(#clip0_11_6376)">
<path d="M69.1559 18.0668C69.5657 20.0783 69.2736 22.1696 68.3282 23.9918C67.3828 25.8141 65.8413 27.2571 63.9607 28.0804C62.0802 28.9036 59.9742 29.0573 57.994 28.5157C56.0139 27.9742 54.2792 26.7701 53.0793 25.1044C51.8795 23.4387 51.2869 21.412 51.4005 19.3622C51.514 17.3125 52.3269 15.3636 53.7034 13.8406C55.08 12.3177 56.937 11.3126 58.9649 10.9932C60.9928 10.6737 63.0689 11.059 64.847 12.085" stroke="white" stroke-width="1.79498" stroke-linecap="round" stroke-linejoin="round"/>
<path d="M57.6699 18.9641L60.3624 21.6566L69.3373 12.6816" stroke="white" stroke-width="1.79498" stroke-linecap="round" stroke-linejoin="round"/>
</g>
<mask id="path-9-inside-3_11_6376" fill="white">
<path d="M79.791 0.00683594H120.248V40.4642H79.791V0.00683594Z"/>
</mask>
<path d="M120.248 0.00683594H119.171V40.4642H120.248H121.325V0.00683594H120.248Z" fill="#E5E7EB" mask="url(#path-9-inside-3_11_6376)"/>
<path d="M108.494 18.1908C108.904 20.2024 108.612 22.2936 107.666 24.1159C106.721 25.9381 105.179 27.3812 103.299 28.2044C101.418 29.0277 99.3121 29.1813 97.3319 28.6397C95.3517 28.0982 93.6171 26.8941 92.4172 25.2284C91.2173 23.5627 90.6248 21.536 90.7384 19.4862C90.8519 17.4365 91.6648 15.4876 93.0413 13.9647C94.4179 12.4417 96.2749 11.4367 98.3028 11.1172C100.331 10.7977 102.407 11.1831 104.185 12.209" stroke="white" stroke-width="1.79498" stroke-linecap="round" stroke-linejoin="round"/>
<path d="M97.0059 19.0891L99.6983 21.7816L108.673 12.8066" stroke="white" stroke-width="1.79498" stroke-linecap="round" stroke-linejoin="round"/>
<mask id="path-13-inside-4_11_6376" fill="white">
<path d="M120.248 0.00683594H159.582V40.4642H120.248V0.00683594Z"/>
</mask>
<path d="M159.582 0.00683594H158.505V40.4642H159.582H160.659V0.00683594H159.582Z" fill="#E5E7EB" mask="url(#path-13-inside-4_11_6376)"/>
<g clip-path="url(#clip1_11_6376)">
<path d="M148.949 18.1908C149.359 20.2024 149.067 22.2936 148.121 24.1159C147.176 25.9381 145.634 27.3812 143.754 28.2044C141.873 29.0277 139.767 29.1813 137.787 28.6397C135.807 28.0982 134.072 26.8941 132.872 25.2284C131.672 23.5627 131.08 21.536 131.193 19.4862C131.307 17.4365 132.12 15.4876 133.496 13.9647C134.873 12.4417 136.73 11.4367 138.758 11.1172C140.786 10.7977 142.862 11.1831 144.64 12.209" stroke="white" stroke-width="1.79498" stroke-linecap="round" stroke-linejoin="round"/>
<path d="M137.461 19.0891L140.153 21.7816L149.128 12.8066" stroke="white" stroke-width="1.79498" stroke-linecap="round" stroke-linejoin="round"/>
</g>
<mask id="path-17-inside-5_11_6376" fill="white">
<path d="M159.582 0.00683594H200.039V40.4642H159.582V0.00683594Z"/>
</mask>
<path d="M200.039 0.00683594H198.962V40.4642H200.039H201.116V0.00683594H200.039Z" fill="#E5E7EB" mask="url(#path-17-inside-5_11_6376)"/>
<g clip-path="url(#clip2_11_6376)">
<path d="M188.287 18.1908C188.697 20.2024 188.404 22.2936 187.459 24.1159C186.514 25.9381 184.972 27.3812 183.092 28.2044C181.211 29.0277 179.105 29.1813 177.125 28.6397C175.145 28.0982 173.41 26.8941 172.21 25.2284C171.01 23.5627 170.418 21.536 170.531 19.4862C170.645 17.4365 171.458 15.4876 172.834 13.9647C174.211 12.4417 176.068 11.4367 178.096 11.1172C180.124 10.7977 182.2 11.1831 183.978 12.209" stroke="white" stroke-width="1.79498" stroke-linecap="round" stroke-linejoin="round"/>
<path d="M176.801 19.0891L179.493 21.7816L188.468 12.8066" stroke="white" stroke-width="1.79498" stroke-linecap="round" stroke-linejoin="round"/>
</g>
<mask id="path-21-inside-6_11_6376" fill="white">
<path d="M200.039 0.00683594H239.373V40.4642H200.039V0.00683594Z"/>
</mask>
<path d="M239.373 0.00683594H238.296V40.4642H239.373H240.45V0.00683594H239.373Z" fill="#E5E7EB" mask="url(#path-21-inside-6_11_6376)"/>
<path d="M228.74 18.1908C229.15 20.2024 228.858 22.2936 227.912 24.1159C226.967 25.9381 225.425 27.3812 223.545 28.2044C221.664 29.0277 219.558 29.1813 217.578 28.6397C215.598 28.0982 213.863 26.8941 212.663 25.2284C211.463 23.5627 210.871 21.536 210.984 19.4862C211.098 17.4365 211.911 15.4876 213.287 13.9647C214.664 12.4417 216.521 11.4367 218.549 11.1172C220.577 10.7977 222.653 11.1831 224.431 12.209" stroke="white" stroke-width="1.79498" stroke-linecap="round" stroke-linejoin="round"/>
<path d="M217.252 19.0891L219.944 21.7816L228.919 12.8066" stroke="white" stroke-width="1.79498" stroke-linecap="round" stroke-linejoin="round"/>
<mask id="path-25-inside-7_11_6376" fill="white">
<path d="M239.207 0L278.698 0V40.8078H239.207V0Z"/>
</mask>
<path d="M278.698 0L277.621 0V40.8078H278.698H279.775V0L278.698 0Z" fill="#E5E7EB" mask="url(#path-25-inside-7_11_6376)"/>
<g clip-path="url(#clip3_11_6376)">
<path d="M267.912 18.1908C268.322 20.2024 268.029 22.2936 267.084 24.1159C266.139 25.9381 264.597 27.3812 262.717 28.2044C260.836 29.0277 258.73 29.1813 256.75 28.6397C254.77 28.0982 253.035 26.8941 251.835 25.2284C250.635 23.5627 250.043 21.536 250.156 19.4862C250.27 17.4365 251.083 15.4876 252.459 13.9647C253.836 12.4417 255.693 11.4367 257.721 11.1172C259.749 10.7977 261.825 11.1831 263.603 12.209" stroke="white" stroke-width="1.79498" stroke-linecap="round" stroke-linejoin="round"/>
<path d="M256.422 19.0891L259.114 21.7816L268.089 12.8066" stroke="white" stroke-width="1.79498" stroke-linecap="round" stroke-linejoin="round"/>
</g>
<mask id="path-29-inside-8_11_6376" fill="white">
<path d="M278.699 0L318.191 0V40.8078H278.699V0Z"/>
</mask>
<path d="M318.191 0L317.114 0V40.8078H318.191H319.268V0L318.191 0Z" fill="#E5E7EB" mask="url(#path-29-inside-8_11_6376)"/>
<path d="M307.404 18.1908C307.814 20.2024 307.522 22.2936 306.576 24.1159C305.631 25.9381 304.089 27.3812 302.209 28.2044C300.328 29.0277 298.222 29.1813 296.242 28.6397C294.262 28.0982 292.527 26.8941 291.327 25.2284C290.128 23.5627 289.535 21.536 289.649 19.4862C289.762 17.4365 290.575 15.4876 291.951 13.9647C293.328 12.4417 295.185 11.4367 297.213 11.1172C299.241 10.7977 301.317 11.1831 303.095 12.209" stroke="white" stroke-width="1.79498" stroke-linecap="round" stroke-linejoin="round"/>
<path d="M295.916 19.0891L298.608 21.7816L307.583 12.8066" stroke="white" stroke-width="1.79498" stroke-linecap="round" stroke-linejoin="round"/>
<mask id="path-33-inside-9_11_6376" fill="white">
<path d="M317.803 0.0126953H357.294V40.8205H317.803V0.0126953Z"/>
</mask>
<path d="M357.294 0.0126953H356.217V40.8205H357.294H358.371V0.0126953H357.294Z" fill="#E5E7EB" mask="url(#path-33-inside-9_11_6376)"/>
<path d="M346.507 18.2035C346.917 20.2151 346.625 22.3063 345.68 24.1286C344.734 25.9508 343.193 27.3939 341.312 28.2171C339.432 29.0403 337.326 29.194 335.346 28.6524C333.365 28.1109 331.631 26.9068 330.431 25.2411C329.231 23.5754 328.638 21.5487 328.752 19.4989C328.866 17.4492 329.678 15.5003 331.055 13.9774C332.432 12.4544 334.289 11.4494 336.316 11.1299C338.344 10.8104 340.42 11.1958 342.199 12.2217" stroke="white" stroke-width="1.79498" stroke-linecap="round" stroke-linejoin="round"/>
<path d="M335.021 19.1008L337.714 21.7933L346.689 12.8184" stroke="white" stroke-width="1.79498" stroke-linecap="round" stroke-linejoin="round"/>
<defs>
<clipPath id="clip0_11_6376">
<rect width="21.5398" height="21.5398" fill="white" transform="translate(49.5938 9.0918)"/>
</clipPath>
<clipPath id="clip1_11_6376">
<rect width="21.5398" height="21.5398" fill="white" transform="translate(129.383 9.21484)"/>
</clipPath>
<clipPath id="clip2_11_6376">
<rect width="21.5398" height="21.5398" fill="white" transform="translate(168.719 9.21484)"/>
</clipPath>
<clipPath id="clip3_11_6376">
<rect width="21.5398" height="21.5398" fill="white" transform="translate(248.342 9.21484)"/>
</clipPath>
</defs>
</svg>
