<svg width="22" height="22" viewBox="0 0 22 22" fill="none" xmlns="http://www.w3.org/2000/svg">
<mask id="mask0_11_5622" style="mask-type:luminance" maskUnits="userSpaceOnUse" x="2" y="0" width="18" height="22">
<path d="M3.66406 2.75163C3.66406 2.50851 3.76064 2.27535 3.93255 2.10345C4.10446 1.93154 4.33761 1.83496 4.58073 1.83496H13.7474L18.3307 6.41829V19.2516C18.3307 19.4947 18.2342 19.7279 18.0622 19.8998C17.8903 20.0717 17.6572 20.1683 17.4141 20.1683H4.58073C4.33761 20.1683 4.10446 20.0717 3.93255 19.8998C3.76064 19.7279 3.66406 19.4947 3.66406 19.2516V2.75163Z" fill="white" stroke="white" stroke-width="1.979" stroke-linejoin="round"/>
<path d="M7.33203 9.16699H14.6654M7.33203 12.8337H14.6654" stroke="black" stroke-width="1.979" stroke-linecap="round" stroke-linejoin="round"/>
</mask>
<g mask="url(#mask0_11_5622)">
<path d="M-0.00195312 0H21.998V22H-0.00195312V0Z" fill="#43A5FD"/>
</g>
</svg>
