<svg width="64" height="64" viewBox="0 0 64 64" fill="none" xmlns="http://www.w3.org/2000/svg">
<path d="M31.8389 0C32.798 0 33.576 0.778172 33.5762 1.7373V30.0996H61.9521C62.9114 30.0997 63.6895 30.8777 63.6895 31.8369C63.6892 32.796 62.9112 33.5741 61.9521 33.5742H33.5762V61.9521C33.5761 62.9114 32.7981 63.6895 31.8389 63.6895C30.8798 63.6892 30.1016 62.9113 30.1016 61.9521V33.5742H1.7373C0.778176 33.5742 0.000231387 32.796 0 31.8369C4.19314e-08 30.8776 0.778033 30.0996 1.7373 30.0996H30.1016V1.7373C30.1018 0.778298 30.8799 0.000205121 31.8389 0Z" fill="black" fill-opacity="0.3"/>
</svg>
