<svg width="121" height="265" viewBox="0 0 121 265" fill="none" xmlns="http://www.w3.org/2000/svg">
<mask id="path-1-inside-1_1_3608" fill="white">
<path d="M60.5 0C93.9132 1.46054e-06 121 59.3223 121 132.5C121 205.678 93.9132 265 60.5 265C49.5014 265 39.189 258.572 30.3018 247.338L5.38184 261.422L17.7158 226.183C6.76992 202.206 -1.59915e-06 169.084 0 132.5C1.69552e-05 59.3223 27.0868 -1.46054e-06 60.5 0Z"/>
</mask>
<path d="M60.5 0V-1V0ZM121 132.5H122V132.5H121ZM60.5 265V266V266V265ZM30.3018 247.338L31.086 246.717L30.5549 246.046L29.8097 246.467L30.3018 247.338ZM5.38184 261.422L4.43798 261.092L3.55991 263.6L5.87386 262.292L5.38184 261.422ZM17.7158 226.183L18.6597 226.513L18.7926 226.133L18.6255 225.767L17.7158 226.183ZM0 132.5H-1V132.5H0ZM60.5 0V1C76.5757 1 91.4535 15.3151 102.37 39.2237C113.247 63.0437 120 96.0209 120 132.5H121H122C122 95.8015 115.21 62.5286 104.19 38.393C93.2097 14.3461 77.8375 -0.999999 60.5 -1V0ZM121 132.5H120C120 168.979 113.247 201.956 102.37 225.776C91.4535 249.685 76.5757 264 60.5 264V265V266C77.8375 266 93.2097 250.654 104.19 226.607C115.21 202.471 122 169.199 122 132.5H121ZM60.5 265V264C49.9227 264 39.8692 257.82 31.086 246.717L30.3018 247.338L29.5175 247.958C38.5087 259.324 49.0801 266 60.5 266V265ZM30.3018 247.338L29.8097 246.467L4.88981 260.551L5.38184 261.422L5.87386 262.292L30.7938 248.208L30.3018 247.338ZM5.38184 261.422L6.32569 261.752L18.6597 226.513L17.7158 226.183L16.772 225.852L4.43798 261.092L5.38184 261.422ZM17.7158 226.183L18.6255 225.767C7.75165 201.948 0.999998 168.975 1 132.5H0H-1C-1 169.194 5.78818 202.463 16.8061 226.598L17.7158 226.183ZM0 132.5H1C1.00001 96.0209 7.75344 63.0437 18.6297 39.2237C29.5465 15.3151 44.4243 0.999999 60.5 1V0V-1C43.1625 -1 27.7903 14.3461 16.8104 38.393C5.78997 62.5286 -0.999991 95.8014 -1 132.5H0Z" fill="#5E6367" mask="url(#path-1-inside-1_1_3608)"/>
</svg>
