<svg width="16" height="16" viewBox="0 0 16 16" fill="none" xmlns="http://www.w3.org/2000/svg">
<path d="M7.89647 15.7929C6.80413 15.7929 5.77759 15.5855 4.81685 15.1707C3.85611 14.7559 3.0204 14.1934 2.30972 13.4832C1.59904 12.7731 1.03654 11.9374 0.622243 10.9761C0.207941 10.0148 0.000527431 8.98829 9.99553e-07 7.89647C-0.000525432 6.80465 0.206889 5.77811 0.622243 4.81685C1.0376 3.85558 1.60009 3.01987 2.30972 2.30972C3.01935 1.59956 3.85506 1.03707 4.81685 0.622242C5.77864 0.207414 6.80518 0 7.89647 0C8.98776 0 10.0143 0.207414 10.9761 0.622242C11.9379 1.03707 12.7736 1.59956 13.4832 2.30972C14.1929 3.01987 14.7556 3.85558 15.1715 4.81685C15.5874 5.77811 15.7945 6.80465 15.7929 7.89647C15.7914 8.98829 15.584 10.0148 15.1707 10.9761C14.7575 11.9374 14.195 12.7731 13.4832 13.4832C12.7715 14.1934 11.9358 14.7561 10.9761 15.1715C10.0164 15.5868 8.98987 15.794 7.89647 15.7929ZM8.68612 14.1544C10.2523 13.957 11.5652 13.2692 12.6249 12.0911C13.6846 10.9129 14.2142 9.51472 14.2136 7.89647C14.2131 6.27822 13.6833 4.88002 12.6241 3.70187C11.5649 2.52371 10.2523 1.83593 8.68612 1.63852V14.1544Z" fill="#999999"/>
</svg>
