<svg width="155" height="21" viewBox="0 0 155 21" fill="none" xmlns="http://www.w3.org/2000/svg">
<path d="M2.80296 1.0156C-0.0607923 2.89242 -0.86086 6.73543 1.01597 9.59918C2.89279 12.4629 6.7358 13.263 9.59955 11.3862C12.4633 9.50935 13.2634 5.66635 11.3865 2.80259C9.50971 -0.0611621 5.66672 -0.861227 2.80296 1.0156ZM145.093 9.23934C142.23 11.1162 141.43 14.9592 143.306 17.8229C145.183 20.6867 149.026 21.4867 151.89 19.6099C154.754 17.7331 155.554 13.8901 153.677 11.0263C151.8 8.16258 147.957 7.36251 145.093 9.23934ZM6.20125 6.20089L6.13418 7.36138L148.425 15.5851L148.492 14.4246L148.559 13.2641L6.26832 5.04039L6.20125 6.20089Z" fill="#FF0000"/>
</svg>
