<svg width="22" height="22" viewBox="0 0 22 22" fill="none" xmlns="http://www.w3.org/2000/svg">
<path d="M10.7653 2.85059e-06C8.40557 -0.00171445 6.1107 0.772534 4.23429 2.20347C2.35788 3.6344 1.00403 5.64262 0.381317 7.91874C-0.241394 10.1949 -0.0984146 12.6126 0.788227 14.7994C1.67487 16.9863 3.25598 18.821 5.28797 20.0208C7.31995 21.2206 9.69008 21.7189 12.0332 21.4391C14.3763 21.1593 16.5624 20.1167 18.2547 18.4722C19.947 16.8276 21.0516 14.6722 21.3983 12.338C21.745 10.0039 21.3146 7.62046 20.1733 5.555C14.5593 9.1985 10.5183 15.492 10.5183 15.492L5.11833 9.4745L6.53183 8.1365L10.2103 10.75C10.2103 10.75 15.2583 6.5655 19.4563 4.427C18.4593 3.05614 17.1522 1.94049 15.6418 1.17111C14.1314 0.401733 12.4604 0.000444518 10.7653 2.85059e-06Z" fill="#999999"/>
</svg>
