<svg width="143" height="240" viewBox="0 0 143 240" fill="none" xmlns="http://www.w3.org/2000/svg">
<path d="M142.583 6.53098C142.766 3.1119 140.143 0.19187 136.724 0.00891068C133.305 -0.174049 130.385 2.44935 130.202 5.86842C130.019 9.2875 132.642 12.2075 136.061 12.3905C139.48 12.5734 142.4 9.95005 142.583 6.53098ZM12.3912 233.207C12.5742 229.788 9.95081 226.868 6.53174 226.685C3.11265 226.502 0.192629 229.126 0.00966994 232.545C-0.173289 235.964 2.4501 238.884 5.86918 239.067C9.28826 239.25 12.2083 236.627 12.3912 233.207ZM136.393 6.1997L135.385 5.62075L5.19246 232.297L6.20046 232.876L7.20846 233.455L137.401 6.77865L136.393 6.1997Z" fill="#999999"/>
</svg>
