<svg width="25" height="25" viewBox="0 0 25 25" fill="none" xmlns="http://www.w3.org/2000/svg">
<path d="M12.25 0C9.82718 0 7.45877 0.71845 5.44427 2.0645C3.42977 3.41054 1.85965 5.32373 0.932481 7.56213C0.00530772 9.80052 -0.237283 12.2636 0.235386 14.6399C0.708055 17.0161 1.87475 19.1989 3.58795 20.9121C5.30114 22.6252 7.48388 23.792 9.86015 24.2646C12.2364 24.7373 14.6995 24.4947 16.9379 23.5675C19.1763 22.6404 21.0895 21.0702 22.4355 19.0557C23.7816 17.0412 24.5 14.6728 24.5 12.25C24.5 9.0011 23.2094 5.88526 20.9121 3.58794C18.6147 1.29062 15.4989 0 12.25 0ZM12.25 5.25C12.5096 5.25 12.7634 5.32698 12.9792 5.4712C13.195 5.61542 13.3633 5.8204 13.4626 6.06023C13.5619 6.30006 13.5879 6.56396 13.5373 6.81856C13.4866 7.07316 13.3616 7.30702 13.1781 7.49058C12.9945 7.67413 12.7607 7.79914 12.5061 7.84978C12.2515 7.90042 11.9876 7.87443 11.7477 7.77509C11.5079 7.67575 11.3029 7.50752 11.1587 7.29169C11.0145 7.07585 10.9375 6.82209 10.9375 6.5625C10.9375 6.2144 11.0758 5.88056 11.3219 5.63442C11.5681 5.38828 11.9019 5.25 12.25 5.25ZM15.75 19.3594H8.75001V17.3906H11.2656V12.3594H9.62501V10.3906H13.2344V17.3906H15.75V19.3594Z" fill="#00A63E"/>
</svg>
