<svg width="122" height="170" viewBox="0 0 122 170" fill="none" xmlns="http://www.w3.org/2000/svg">
<path d="M121.229 7.00536C121.673 3.61038 119.281 0.497821 115.886 0.0532838C112.491 -0.391253 109.379 2.00057 108.934 5.39555C108.49 8.79054 110.882 11.9031 114.277 12.3476C117.671 12.7922 120.784 10.4003 121.229 7.00536ZM12.3483 164.537C12.7929 161.142 10.4011 158.029 7.00607 157.585C3.61108 157.14 0.49853 159.532 0.0539932 162.927C-0.390544 166.322 2.00127 169.434 5.39626 169.879C8.79125 170.323 11.9038 167.932 12.3483 164.537ZM115.081 6.20046L114.125 5.53952L5.24491 163.071L6.20117 163.732L7.15742 164.393L116.038 6.86139L115.081 6.20046Z" fill="#FF0000"/>
</svg>
