<svg width="71" height="162" viewBox="0 0 71 162" fill="none" xmlns="http://www.w3.org/2000/svg">
<path d="M70.3089 6.00054C70.1991 2.57834 67.3359 -0.106897 63.9137 0.00290977C60.4915 0.112717 57.8062 2.97599 57.916 6.39819C58.0258 9.82041 60.8891 12.5056 64.3113 12.3958C67.7335 12.286 70.4187 9.42276 70.3089 6.00054ZM12.3971 154.732C12.2873 151.31 9.424 148.625 6.00179 148.735C2.57958 148.844 -0.105656 151.708 0.00415117 155.13C0.113958 158.552 2.97723 161.237 6.39944 161.128C9.82164 161.018 12.5069 158.155 12.3971 154.732ZM64.1125 6.19937L63.0293 5.77761L5.11739 154.509L6.20061 154.931L7.28383 155.353L65.1957 6.62114L64.1125 6.19937Z" fill="#FF7700"/>
</svg>
