<svg width="96" height="158" viewBox="0 0 96 158" fill="none" xmlns="http://www.w3.org/2000/svg">
<path d="M95.8825 6.00064C95.7727 2.57844 92.9095 -0.106796 89.4873 0.00301092C86.065 0.112818 83.3798 2.97609 83.4896 6.39829C83.5994 9.8205 86.4627 12.5057 89.8849 12.3959C93.3071 12.2861 95.9923 9.42285 95.8825 6.00064ZM12.3967 150.942C12.2869 147.519 9.42359 144.834 6.00138 144.944C2.57918 145.054 -0.106059 147.917 0.00374806 151.339C0.113555 154.762 2.97682 157.447 6.39903 157.337C9.82124 157.227 12.5065 154.364 12.3967 150.942ZM89.6861 6.19947L88.6788 5.61928L5.19292 150.56L6.20021 151.141L7.2075 151.721L90.6934 6.77966L89.6861 6.19947Z" fill="#FF7700"/>
</svg>
