<svg width="153" height="24" viewBox="0 0 153 24" fill="none" xmlns="http://www.w3.org/2000/svg">
<path d="M2.80177 1.01491C-0.0619856 2.89174 -0.862047 6.73474 1.01478 9.59849C2.89161 12.4623 6.7346 13.2623 9.59836 11.3855C12.4621 9.50866 13.2622 5.66566 11.3854 2.80191C9.50853 -0.0618501 5.66552 -0.861911 2.80177 1.01491ZM143.093 12.2515C140.229 14.1284 139.429 17.9714 141.306 20.8351C143.183 23.6989 147.026 24.4989 149.889 22.6221C152.753 20.7453 153.553 16.9023 151.676 14.0385C149.799 11.1748 145.956 10.3747 143.093 12.2515ZM6.20007 6.2002L6.10726 7.35892L146.398 18.5955L146.491 17.4368L146.584 16.2781L6.29287 5.04148L6.20007 6.2002Z" fill="#FF7700"/>
</svg>
