<svg width="155" height="21" viewBox="0 0 155 21" fill="none" xmlns="http://www.w3.org/2000/svg">
<path d="M2.80296 1.01462C-0.0607923 2.89145 -0.86086 6.73445 1.01597 9.59821C2.89279 12.462 6.7358 13.262 9.59955 11.3852C12.4633 9.50837 13.2634 5.66537 11.3865 2.80162C9.50971 -0.0621386 5.66672 -0.862204 2.80296 1.01462ZM145.093 9.23836C142.23 11.1152 141.43 14.9582 143.306 17.8219C145.183 20.6857 149.026 21.4858 151.89 19.6089C154.754 17.7321 155.554 13.8891 153.677 11.0254C151.8 8.1616 147.957 7.36154 145.093 9.23836ZM6.20125 6.19991L6.13418 7.36041L148.425 15.5841L148.492 14.4236L148.559 13.2632L6.26832 5.03942L6.20125 6.19991Z" fill="#00A63E"/>
</svg>
