<svg width="55" height="147" viewBox="0 0 55 147" fill="none" xmlns="http://www.w3.org/2000/svg">
<path d="M54.728 5.86673C54.5439 2.4477 51.623 -0.17472 48.204 0.00936848C44.785 0.193457 42.1626 3.11434 42.3466 6.53337C42.5307 9.95238 45.4516 12.5748 48.8706 12.3907C52.2897 12.2066 54.9121 9.28574 54.728 5.86673ZM12.3896 139.547C12.2056 136.128 9.28467 133.505 5.86565 133.689C2.44663 133.874 -0.175798 136.794 0.00829071 140.213C0.192379 143.632 3.11327 146.255 6.53229 146.071C9.95131 145.887 12.5737 142.966 12.3896 139.547ZM48.5373 6.20005L47.4291 5.84907L5.09079 139.529L6.19897 139.88L7.30715 140.231L49.6455 6.55102L48.5373 6.20005Z" fill="#00A63E"/>
</svg>
