<svg width="36" height="36" viewBox="0 0 36 36" fill="none" xmlns="http://www.w3.org/2000/svg">
<path d="M13.325 7.97042C14.1999 5.41006 17.7376 5.33252 18.7749 7.73779L18.8627 7.97188L20.0434 11.4247C20.3139 12.2166 20.7512 12.9412 21.3256 13.5497C21.9001 14.1582 22.5983 14.6364 23.3733 14.9522L23.6908 15.0707L27.1436 16.2499C29.704 17.1248 29.7815 20.6625 27.3777 21.6998L27.1436 21.7876L23.6908 22.9683C22.8986 23.2387 22.1737 23.6759 21.565 24.2503C20.9562 24.8247 20.4777 25.5231 20.1619 26.2982L20.0434 26.6142L18.8641 30.0685C17.9892 32.6289 14.4515 32.7064 13.4157 30.3026L13.325 30.0685L12.1457 26.6157C11.8753 25.8236 11.4382 25.0987 10.8637 24.4899C10.2893 23.8811 9.59094 23.4027 8.81582 23.0868L8.4998 22.9683L5.04697 21.789C2.48515 20.9141 2.4076 17.3764 4.81288 16.3406L5.04697 16.2499L8.4998 15.0707C9.29166 14.8001 10.0163 14.3628 10.6248 13.7884C11.2333 13.214 11.7115 12.5157 12.0272 11.7407L12.1457 11.4247L13.325 7.97042ZM27.7991 2.92578C28.0728 2.92578 28.341 3.00256 28.5732 3.14739C28.8055 3.29223 28.9925 3.49931 29.1129 3.7451L29.1831 3.91627L29.6952 5.41738L31.1978 5.92945C31.472 6.02264 31.7125 6.19516 31.8887 6.42516C32.0648 6.65515 32.1687 6.93226 32.1872 7.22136C32.2057 7.51047 32.1379 7.79856 31.9925 8.04912C31.8471 8.29967 31.6306 8.50142 31.3704 8.6288L31.1978 8.69903L29.6967 9.2111L29.1846 10.7137C29.0912 10.9879 28.9186 11.2282 28.6885 11.4042C28.4584 11.5802 28.1813 11.684 27.8922 11.7023C27.6031 11.7206 27.315 11.6527 27.0646 11.5072C26.8141 11.3617 26.6125 11.1451 26.4852 10.8848L26.415 10.7137L25.9029 9.21256L24.4004 8.70049C24.1261 8.6073 23.8856 8.43477 23.7095 8.20478C23.5333 7.97479 23.4294 7.69768 23.4109 7.40857C23.3924 7.11947 23.4602 6.83138 23.6056 6.58082C23.751 6.33026 23.9675 6.12851 24.2277 6.00114L24.4004 5.93091L25.9015 5.41884L26.4135 3.91627C26.5122 3.62721 26.6988 3.37627 26.9473 3.19864C27.1958 3.02101 27.4936 2.9256 27.7991 2.92578Z" fill="#999999"/>
<path d="M13.325 7.97243C14.1999 5.41207 17.7376 5.33453 18.7749 7.7398L18.8627 7.97389L20.0434 11.4267C20.3139 12.2186 20.7512 12.9432 21.3256 13.5517C21.9001 14.1602 22.5983 14.6385 23.3733 14.9542L23.6908 15.0727L27.1436 16.2519C29.704 17.1268 29.7815 20.6645 27.3777 21.7018L27.1436 21.7896L23.6908 22.9703C22.8986 23.2407 22.1737 23.6779 21.565 24.2523C20.9562 24.8267 20.4777 25.5251 20.1619 26.3002L20.0434 26.6162L18.8641 30.0705C17.9892 32.6309 14.4515 32.7084 13.4157 30.3046L13.325 30.0705L12.1457 26.6177C11.8753 25.8256 11.4382 25.1007 10.8637 24.4919C10.2893 23.8831 9.59094 23.4047 8.81582 23.0888L8.4998 22.9703L5.04697 21.7911C2.48515 20.9161 2.4076 17.3785 4.81288 16.3426L5.04697 16.2519L8.4998 15.0727C9.29166 14.8021 10.0163 14.3648 10.6248 13.7904C11.2333 13.216 11.7115 12.5177 12.0272 11.7427L12.1457 11.4267L13.325 7.97243Z" fill="#CCCCCC"/>
</svg>
