<svg width="18" height="18" viewBox="0 0 18 18" fill="none" xmlns="http://www.w3.org/2000/svg">
<path d="M17.9888 13.2449C17.9807 13.2226 17.9683 13.202 17.9523 13.1844C17.9363 13.1669 17.9169 13.1527 17.8954 13.1426C17.8738 13.1326 17.8505 13.1269 17.8268 13.1259C17.803 13.125 17.7793 13.1287 17.757 13.1369L16.38 13.6386V1.5299C16.38 0.683957 15.696 0 14.85 0H3.15C2.304 0 1.62 0.683957 1.62 1.5299V13.6386L0.24075 13.1369C0.2205 13.1302 0.20025 13.1257 0.18 13.1257C0.081 13.1257 0 13.2067 0 13.3057V14.6466C0 14.7208 0.0472501 14.7883 0.11925 14.8153L8.7525 17.9561C8.91225 18.0146 9.0855 18.0146 9.24525 17.9561L17.8808 14.8176C17.9528 14.7906 18 14.7231 18 14.6488V13.3079C18 13.2854 17.9955 13.2652 17.9888 13.2449ZM12.5033 4.76295L10.17 9.07368H11.466C11.565 9.07368 11.646 9.15468 11.646 9.25367V9.86338C11.646 9.96238 11.565 10.0434 11.466 10.0434H9.74925V10.9208H11.466C11.565 10.9208 11.646 11.0018 11.646 11.1008V11.7105C11.646 11.8095 11.565 11.8905 11.466 11.8905H9.74925V13.3192C9.74925 13.4182 9.66825 13.4992 9.56925 13.4992H8.4465C8.3475 13.4992 8.2665 13.4182 8.2665 13.3192V11.8928H6.5565C6.4575 11.8928 6.3765 11.8118 6.3765 11.7128V11.1031C6.3765 11.0041 6.4575 10.9231 6.5565 10.9231H8.2665V10.0456H6.5565C6.4575 10.0456 6.3765 9.96463 6.3765 9.86563V9.25592C6.3765 9.15693 6.4575 9.07593 6.5565 9.07593H7.839L5.50125 4.7652C5.454 4.67971 5.4855 4.56946 5.57325 4.52222C5.60025 4.50647 5.6295 4.49972 5.65875 4.49972H6.912C6.94516 4.4999 6.97763 4.50924 7.00582 4.52671C7.03401 4.54418 7.05683 4.5691 7.07175 4.59871L8.9775 8.39648H9.05175L10.9575 4.59871C10.9868 4.53797 11.0498 4.49972 11.1172 4.49972H12.3435C12.4425 4.49972 12.5235 4.58071 12.5258 4.67746C12.5258 4.70671 12.5168 4.73595 12.5033 4.76295Z" fill="#999999"/>
</svg>
