<svg width="18" height="16" viewBox="0 0 18 16" fill="none" xmlns="http://www.w3.org/2000/svg">
<path d="M10.5 1.3125C10.5 0.964403 10.6383 0.630564 10.8844 0.384422C11.1306 0.138281 11.4644 0 11.8125 0H15.75C16.0981 0 16.4319 0.138281 16.6781 0.384422C16.9242 0.630564 17.0625 0.964403 17.0625 1.3125V12.4688C17.0625 13.339 16.7168 14.1736 16.1014 14.7889C15.4861 15.4043 14.6515 15.75 13.7812 15.75H1.3125C0.964403 15.75 0.630564 15.6117 0.384422 15.3656C0.138281 15.1194 0 14.7856 0 14.4375V10.5C0 10.1519 0.138281 9.81806 0.384422 9.57192C0.630564 9.32578 0.964403 9.1875 1.3125 9.1875H5.25V6.5625C5.25 6.2144 5.38828 5.88056 5.63442 5.63442C5.88056 5.38828 6.2144 5.25 6.5625 5.25H10.5V1.3125Z" fill="#999999"/>
</svg>
