<svg width="32" height="32" viewBox="0 0 32 32" fill="none" xmlns="http://www.w3.org/2000/svg">
<path d="M31.1602 22.9444C31.1463 22.9056 31.1249 22.87 31.0971 22.8396C31.0693 22.8092 31.0358 22.7846 30.9985 22.7672C30.9612 22.7498 30.9208 22.74 30.8796 22.7383C30.8385 22.7366 30.7974 22.743 30.7588 22.7573L28.3736 23.6264V2.65028C28.3736 1.18483 27.1887 0 25.7233 0H5.45645C3.99101 0 2.80618 1.18483 2.80618 2.65028V23.6264L0.417029 22.7573C0.381952 22.7456 0.346875 22.7378 0.311797 22.7378C0.140309 22.7378 0 22.8781 0 23.0496V25.3725C0 25.5011 0.0818469 25.618 0.206566 25.6648L15.1611 31.1057C15.4379 31.207 15.738 31.207 16.0147 31.1057L30.9732 25.6687C31.0979 25.6219 31.1797 25.505 31.1797 25.3764V23.0535C31.1797 23.0145 31.1719 22.9795 31.1602 22.9444ZM21.6582 8.25094L17.6165 15.7185H19.8615C20.033 15.7185 20.1733 15.8588 20.1733 16.0303V17.0865C20.1733 17.258 20.033 17.3983 19.8615 17.3983H16.8877V18.9183H19.8615C20.033 18.9183 20.1733 19.0586 20.1733 19.2301V20.2863C20.1733 20.4578 20.033 20.5981 19.8615 20.5981H16.8877V23.073C16.8877 23.2445 16.7474 23.3848 16.5759 23.3848H14.6311C14.4596 23.3848 14.3193 23.2445 14.3193 23.073V20.602H11.3572C11.1857 20.602 11.0454 20.4617 11.0454 20.2902V19.234C11.0454 19.0625 11.1857 18.9222 11.3572 18.9222H14.3193V17.4022H11.3572C11.1857 17.4022 11.0454 17.2619 11.0454 17.0904V16.0342C11.0454 15.8627 11.1857 15.7224 11.3572 15.7224H13.5788L9.52931 8.25483C9.44746 8.10673 9.50202 7.91576 9.65403 7.83391C9.70079 7.80663 9.75146 7.79493 9.80213 7.79493H11.973C12.0305 7.79525 12.0867 7.81143 12.1355 7.8417C12.1844 7.87196 12.2239 7.91512 12.2497 7.96642L15.5509 14.5453H15.6795L18.9807 7.96642C19.0313 7.86119 19.1405 7.79493 19.2574 7.79493H21.3815C21.553 7.79493 21.6933 7.93524 21.6972 8.10283C21.6972 8.1535 21.6816 8.20417 21.6582 8.25094Z" fill="#999999"/>
</svg>
