<svg width="31" height="31" viewBox="0 0 31 31" fill="none" xmlns="http://www.w3.org/2000/svg">
<path d="M16.6964 10.625H13.6607V7.58929H16.6964M16.6964 22.7679H13.6607V13.6607H16.6964M15.1786 0C13.1853 0 11.2115 0.392605 9.36998 1.1554C7.52843 1.91819 5.85516 3.03624 4.4457 4.4457C1.59917 7.29224 0 11.153 0 15.1786C0 19.2042 1.59917 23.0649 4.4457 25.9114C5.85516 27.3209 7.52843 28.439 9.36998 29.2017C11.2115 29.9645 13.1853 30.3571 15.1786 30.3571C19.2042 30.3571 23.0649 28.758 25.9114 25.9114C28.758 23.0649 30.3571 19.2042 30.3571 15.1786C30.3571 13.1853 29.9645 11.2115 29.2017 9.36998C28.439 7.52843 27.3209 5.85516 25.9114 4.4457C24.502 3.03624 22.8287 1.91819 20.9872 1.1554C19.1456 0.392605 17.1719 0 15.1786 0Z" fill="#999999"/>
</svg>
