<svg width="22" height="22" viewBox="0 0 22 22" fill="none" xmlns="http://www.w3.org/2000/svg">
<path d="M21.9863 16.1882C21.9764 16.1609 21.9613 16.1358 21.9417 16.1143C21.9221 16.0929 21.8985 16.0755 21.8721 16.0632C21.8458 16.0509 21.8173 16.044 21.7883 16.0428C21.7592 16.0416 21.7303 16.0462 21.703 16.0562L20.02 16.6695V1.86988C20.02 0.835948 19.184 0 18.15 0H3.85C2.816 0 1.98 0.835948 1.98 1.86988V16.6695L0.29425 16.0562C0.2695 16.048 0.24475 16.0425 0.22 16.0425C0.099 16.0425 0 16.1415 0 16.2625V17.9014C0 17.9921 0.0577501 18.0746 0.14575 18.1076L10.6975 21.9464C10.8927 22.0179 11.1045 22.0179 11.2998 21.9464L21.8543 18.1104C21.9423 18.0774 22 17.9949 22 17.9041V16.2652C22 16.2377 21.9945 16.213 21.9863 16.1882ZM15.2818 5.82139L12.43 11.0901H14.014C14.135 11.0901 14.234 11.1891 14.234 11.31V12.0552C14.234 12.1762 14.135 12.2752 14.014 12.2752H11.9157V13.3477H14.014C14.135 13.3477 14.234 13.4467 14.234 13.5677V14.3129C14.234 14.4338 14.135 14.5328 14.014 14.5328H11.9157V16.279C11.9157 16.4 11.8167 16.499 11.6957 16.499H10.3235C10.2025 16.499 10.1035 16.4 10.1035 16.279V14.5356H8.0135C7.8925 14.5356 7.7935 14.4366 7.7935 14.3156V13.5704C7.7935 13.4494 7.8925 13.3504 8.0135 13.3504H10.1035V12.278H8.0135C7.8925 12.278 7.7935 12.179 7.7935 12.058V11.3128C7.7935 11.1918 7.8925 11.0928 8.0135 11.0928H9.581L6.72375 5.82414C6.666 5.71964 6.7045 5.5849 6.81175 5.52715C6.84475 5.50791 6.8805 5.49966 6.91625 5.49966H8.448C8.48853 5.49988 8.52822 5.5113 8.56267 5.53265C8.59712 5.554 8.62501 5.58445 8.64325 5.62065L10.9725 10.2624H11.0632L13.3925 5.62065C13.4283 5.5464 13.5052 5.49966 13.5877 5.49966H15.0865C15.2075 5.49966 15.3065 5.59865 15.3092 5.71689C15.3092 5.75264 15.2983 5.78839 15.2818 5.82139Z" fill="#FF8400"/>
</svg>
