<svg width="17" height="17" viewBox="0 0 17 17" fill="none" xmlns="http://www.w3.org/2000/svg">
<path d="M11.8447 10.4233H11.0961L10.8308 10.1675C11.7916 9.05321 12.3196 7.63056 12.3185 6.15925C12.3185 4.94107 11.9573 3.75024 11.2805 2.73736C10.6037 1.72447 9.64175 0.935026 8.51629 0.468848C7.39084 0.00266871 6.15242 -0.119305 4.95764 0.118351C3.76286 0.356007 2.66539 0.942618 1.804 1.804C0.942618 2.66539 0.356007 3.76286 0.118351 4.95764C-0.119305 6.15242 0.00266871 7.39084 0.468848 8.51629C0.935026 9.64175 1.72447 10.6037 2.73736 11.2805C3.75024 11.9573 4.94107 12.3185 6.15925 12.3185C7.68485 12.3185 9.08726 11.7594 10.1675 10.8308L10.4233 11.0961V11.8447L15.1612 16.5731L16.5731 15.1612L11.8447 10.4233ZM6.15925 10.4233C3.79978 10.4233 1.89516 8.51872 1.89516 6.15925C1.89516 3.79978 3.79978 1.89516 6.15925 1.89516C8.51872 1.89516 10.4233 3.79978 10.4233 6.15925C10.4233 8.51872 8.51872 10.4233 6.15925 10.4233Z" fill="#999999"/>
</svg>
