<svg width="32" height="31" viewBox="0 0 32 31" fill="none" xmlns="http://www.w3.org/2000/svg">
<path d="M22.3574 22.283H10.1443C9.61456 22.283 9.18266 22.4461 8.84863 22.7724C8.5146 23.0986 8.31235 23.4724 8.24189 23.8938C8.17013 24.3049 8.22884 24.7185 8.41804 25.1347C8.60724 25.551 8.96019 25.8524 9.4769 26.039L20.0792 30.2274C20.3558 30.3331 20.6298 30.3742 20.9012 30.3507C21.1753 30.3259 21.4173 30.232 21.6274 30.0689C21.8375 29.9058 22.0116 29.7049 22.15 29.4661C22.2883 29.226 22.3574 28.9598 22.3574 28.6675V22.283ZM11.7434 0C13.3587 0 14.7412 0.574773 15.8907 1.72432C17.0403 2.87386 17.6151 4.25632 17.6151 5.87168C17.6151 7.48705 17.0403 8.86951 15.8907 10.0191C14.7412 11.1686 13.3587 11.7434 11.7434 11.7434C10.128 11.7434 8.74555 11.1686 7.596 10.0191C6.44646 8.86951 5.87169 7.48705 5.87169 5.87168C5.87169 4.25632 6.44646 2.87386 7.596 1.72432C8.74555 0.574773 10.128 0 11.7434 0ZM29.0453 14.4541C29.6638 14.4541 30.1968 14.6642 30.6443 15.0844C31.0919 15.5045 31.3157 16.0264 31.3157 16.6501C31.3157 17.176 31.1682 17.6346 30.8733 18.0261C30.5784 18.4175 30.1818 18.6961 29.6833 18.8618L24.3146 20.3258H10.1443C9.06131 20.3258 8.14142 20.7042 7.38462 21.461C6.62783 22.2191 6.24943 23.139 6.24943 24.2207C6.24943 24.8835 6.44972 25.4838 6.8503 26.0213C7.25088 26.5589 7.74541 26.981 8.33388 27.2877L10.5162 28.1547H0V22.283C0 20.1027 0.760057 18.2525 2.28017 16.7323C3.79898 15.2135 5.64856 14.4541 7.82891 14.4541H29.0453Z" fill="#999999"/>
</svg>
