<svg width="74" height="24" viewBox="0 0 74 24" fill="none" xmlns="http://www.w3.org/2000/svg">
<path d="M9.17866 8.23365V10.7068H15.09C14.909 12.0941 14.4466 13.1095 13.7429 13.8233C12.8783 14.6879 11.5311 15.6329 9.17866 15.6329C5.53937 15.6329 2.69428 12.6973 2.69428 9.05802C2.69428 5.41873 5.53937 2.48316 9.17866 2.48316C11.1391 2.48316 12.5767 3.25727 13.6323 4.25254L15.3715 2.51332C13.9037 1.08576 11.9333 0 9.17866 0C4.19222 0 0 4.06153 0 9.04797C0 14.0344 4.19222 18.0959 9.17866 18.0959C11.8729 18.0959 13.9037 17.2112 15.4921 15.5625C17.1208 13.9339 17.6335 11.6317 17.6335 9.78186C17.6335 9.20882 17.5933 8.67599 17.5028 8.23365H9.17866ZM25.0226 6.22299C21.7955 6.22299 19.1616 8.67599 19.1616 12.064C19.1616 15.4218 21.7955 17.9049 25.0226 17.9049C28.2498 17.9049 30.8837 15.4318 30.8837 12.064C30.8837 8.67599 28.2498 6.22299 25.0226 6.22299ZM25.0226 15.6027C23.2533 15.6027 21.7252 14.145 21.7252 12.064C21.7252 9.96282 23.2533 8.52519 25.0226 8.52519C26.792 8.52519 28.3201 9.96282 28.3201 12.064C28.3201 14.145 26.792 15.6027 25.0226 15.6027ZM53.755 7.52992H53.6645C53.0914 6.84629 51.9856 6.22299 50.5882 6.22299C47.6727 6.22299 45.1292 8.76647 45.1292 12.064C45.1292 15.3413 47.6727 17.9049 50.5882 17.9049C51.9856 17.9049 53.0914 17.2816 53.6645 16.5779H53.755V17.3922C53.755 19.624 52.5586 20.8204 50.6384 20.8204C49.0701 20.8204 48.095 19.6944 47.6928 18.7393L45.461 19.6642C46.1044 21.2125 47.8034 23.1125 50.6384 23.1125C53.6444 23.1125 56.1879 21.3431 56.1879 17.0303V6.52459H53.755V7.52992ZM50.8094 15.6027C49.04 15.6027 47.6928 14.0947 47.6928 12.064C47.6928 10.003 49.04 8.52519 50.8094 8.52519C52.5586 8.52519 53.9259 10.0332 53.9259 12.0841C53.9359 14.1249 52.5586 15.6027 50.8094 15.6027ZM38.0919 6.22299C34.8648 6.22299 32.2309 8.67599 32.2309 12.064C32.2309 15.4218 34.8648 17.9049 38.0919 17.9049C41.319 17.9049 43.953 15.4318 43.953 12.064C43.953 8.67599 41.319 6.22299 38.0919 6.22299ZM38.0919 15.6027C36.3226 15.6027 34.7945 14.145 34.7945 12.064C34.7945 9.96282 36.3226 8.52519 38.0919 8.52519C39.8613 8.52519 41.3894 9.96282 41.3894 12.064C41.3894 14.145 39.8613 15.6027 38.0919 15.6027ZM58.1985 0.241279H60.7219V17.9049H58.1985V0.241279ZM68.5132 15.6027C67.2063 15.6027 66.2814 15.0096 65.6782 13.8333L73.4896 10.6062L73.2282 9.94271C72.7456 8.63578 71.2578 6.22299 68.2317 6.22299C65.2258 6.22299 62.7225 8.58551 62.7225 12.064C62.7225 15.3413 65.1956 17.9049 68.5132 17.9049C71.1874 17.9049 72.7356 16.2662 73.379 15.3212L71.3885 13.9942C70.7249 14.9593 69.8201 15.6027 68.5132 15.6027ZM68.3322 8.41461C69.3677 8.41461 70.2524 8.94743 70.544 9.70143L65.266 11.883C65.266 9.42999 67.0052 8.41461 68.3322 8.41461Z" fill="black"/>
</svg>
