<svg width="29" height="31" viewBox="0 0 29 31" fill="none" xmlns="http://www.w3.org/2000/svg">
<path fill-rule="evenodd" clip-rule="evenodd" d="M28.3673 21.2703C28.3673 27.7926 22.4573 30.7246 14.1837 30.7246C5.91004 30.7246 0 27.7926 0 21.3164C0 14.2257 3.54646 10.6331 10.6372 7.04056L8.12658 2.36608C7.9762 2.1318 7.8923 1.86107 7.88386 1.58281C7.87541 1.30455 7.94274 1.02922 8.07865 0.78626C8.21455 0.543299 8.41392 0.341835 8.65545 0.203401C8.89698 0.0649667 9.17159 -0.00523329 9.44992 0.000303998H19.4726C19.7332 0.00697115 19.9878 0.079829 20.2124 0.21202C20.4371 0.344212 20.6244 0.53139 20.7568 0.755938C20.8891 0.980486 20.9622 1.23502 20.969 1.49558C20.9759 1.75615 20.9163 2.01417 20.796 2.24537L17.7301 7.04056C24.8187 10.5848 28.3673 14.1774 28.3673 21.2703ZM9.68474 12.29C9.80002 12.2036 9.9312 12.1407 10.0708 12.1049C10.2104 12.0691 10.3557 12.0612 10.4983 12.0816C10.641 12.102 10.7782 12.1503 10.9022 12.2237C11.0262 12.2971 11.1345 12.3942 11.221 12.5095L14.1837 16.4598L17.1464 12.5095C17.2328 12.3942 17.3411 12.2971 17.4651 12.2237C17.5891 12.1503 17.7264 12.102 17.869 12.0816C18.0117 12.0612 18.1569 12.0691 18.2965 12.1049C18.4361 12.1407 18.5673 12.2036 18.6826 12.29C18.7979 12.3765 18.895 12.4848 18.9684 12.6088C19.0418 12.7328 19.0901 12.87 19.1105 13.0127C19.1308 13.1553 19.1229 13.3006 19.0872 13.4402C19.0514 13.5798 18.9885 13.711 18.902 13.8262L16.3783 17.1906H18.0242C18.3152 17.1906 18.5943 17.3062 18.8001 17.5119C19.0059 17.7177 19.1215 17.9968 19.1215 18.2879C19.1215 18.5789 19.0059 18.858 18.8001 19.0638C18.5943 19.2695 18.3152 19.3852 18.0242 19.3852H15.281V20.3925H18.0242C18.3152 20.3925 18.5943 20.5081 18.8001 20.7139C19.0059 20.9196 19.1215 21.1987 19.1215 21.4898C19.1215 21.7808 19.0059 22.0599 18.8001 22.2657C18.5943 22.4715 18.3152 22.5871 18.0242 22.5871H15.281V24.0487C15.281 24.3397 15.1653 24.6188 14.9596 24.8246C14.7538 25.0303 14.4747 25.146 14.1837 25.146C13.8926 25.146 13.6135 25.0303 13.4078 24.8246C13.202 24.6188 13.0864 24.3397 13.0864 24.0487V22.5871H10.3431C10.0521 22.5871 9.773 22.4715 9.56721 22.2657C9.36143 22.0599 9.24582 21.7808 9.24582 21.4898C9.24582 21.1987 9.36143 20.9196 9.56721 20.7139C9.773 20.5081 10.0521 20.3925 10.3431 20.3925H13.0864V19.3852H10.3431C10.0521 19.3852 9.773 19.2695 9.56721 19.0638C9.36143 18.858 9.24582 18.5789 9.24582 18.2879C9.24582 17.9968 9.36143 17.7177 9.56721 17.5119C9.773 17.3062 10.0521 17.1906 10.3431 17.1906H11.9891L9.46528 13.8262C9.37882 13.711 9.31592 13.5798 9.28015 13.4402C9.24439 13.3006 9.23647 13.1553 9.25685 13.0127C9.27723 12.87 9.32551 12.7328 9.39892 12.6088C9.47234 12.4848 9.56946 12.3765 9.68474 12.29Z" fill="#A2D3FE"/>
</svg>
