<svg width="30" height="30" viewBox="0 0 30 30" fill="none" xmlns="http://www.w3.org/2000/svg">
<path fill-rule="evenodd" clip-rule="evenodd" d="M17.8611 4.14047C18.5243 4.3453 19.1583 4.60865 19.7631 4.93052L22.4448 3.32115C22.7245 3.15343 23.0521 3.08393 23.3758 3.12369C23.6994 3.16345 24.0005 3.31019 24.2312 3.54061L25.7206 5.03001C25.9511 5.26074 26.0978 5.56182 26.1376 5.88547C26.1773 6.20912 26.1078 6.53677 25.9401 6.81641L24.3307 9.4982C24.6526 10.1029 24.916 10.7369 25.1208 11.4002L28.1537 12.1595C28.4701 12.2388 28.7509 12.4215 28.9516 12.6786C29.1523 12.9357 29.2612 13.2525 29.2612 13.5787V15.6826C29.2612 16.0087 29.1523 16.3255 28.9516 16.5827C28.7509 16.8398 28.4701 17.0225 28.1537 17.1017L25.1208 17.8611C24.916 18.5243 24.6526 19.1583 24.3307 19.7631L25.9401 22.4448C26.1078 22.7245 26.1773 23.0521 26.1376 23.3758C26.0978 23.6994 25.9511 24.0005 25.7206 24.2312L24.2312 25.7206C24.0005 25.9511 23.6994 26.0978 23.3758 26.1376C23.0521 26.1773 22.7245 26.1078 22.4448 25.9401L19.7631 24.3307C19.1583 24.6526 18.5243 24.916 17.8611 25.1208L17.1017 28.1537C17.0225 28.4701 16.8398 28.7509 16.5827 28.9516C16.3255 29.1523 16.0087 29.2612 15.6826 29.2612H13.5787C13.2525 29.2612 12.9357 29.1523 12.6786 28.9516C12.4215 28.7509 12.2388 28.4701 12.1595 28.1537L11.4002 25.1208C10.7428 24.9176 10.106 24.6531 9.4982 24.3307L6.81641 25.9401C6.53677 26.1078 6.20912 26.1773 5.88547 26.1376C5.56182 26.0978 5.26074 25.9511 5.03001 25.7206L3.54061 24.2312C3.31019 24.0005 3.16345 23.6994 3.12369 23.3758C3.08393 23.0521 3.15343 22.7245 3.32115 22.4448L4.93052 19.7631C4.60812 19.1552 4.34361 18.5184 4.14047 17.8611L1.10754 17.1017C0.791399 17.0225 0.510753 16.8401 0.310115 16.5832C0.109477 16.3264 0.000334518 16.0099 0 15.684V13.5801C8.57418e-06 13.254 0.109001 12.9372 0.309665 12.6801C0.510329 12.4229 0.791156 12.2402 1.10754 12.161L4.14047 11.4016C4.3453 10.7384 4.60865 10.1044 4.93052 9.49967L3.32115 6.81787C3.15343 6.53823 3.08393 6.21058 3.12369 5.88693C3.16345 5.56329 3.31019 5.2622 3.54061 5.03147L5.03001 3.54061C5.26074 3.31019 5.56182 3.16345 5.88547 3.12369C6.20912 3.08393 6.53677 3.15343 6.81641 3.32115L9.4982 4.93052C10.1029 4.60865 10.7369 4.3453 11.4002 4.14047L12.1595 1.10754C12.2387 0.791399 12.4212 0.510753 12.678 0.310115C12.9348 0.109477 13.2513 0.000334518 13.5772 0H15.6811C16.0073 8.57418e-06 16.3241 0.109001 16.5812 0.309665C16.8383 0.510329 17.021 0.791156 17.1003 1.10754L17.8611 4.14047ZM14.6306 20.4829C16.1827 20.4829 17.6713 19.8663 18.7688 18.7688C19.8663 17.6713 20.4829 16.1827 20.4829 14.6306C20.4829 13.0785 19.8663 11.59 18.7688 10.4925C17.6713 9.39495 16.1827 8.77838 14.6306 8.77838C13.0785 8.77838 11.59 9.39495 10.4925 10.4925C9.39495 11.59 8.77838 13.0785 8.77838 14.6306C8.77838 16.1827 9.39495 17.6713 10.4925 18.7688C11.59 19.8663 13.0785 20.4829 14.6306 20.4829Z" fill="#CCCCCC"/>
</svg>
