<svg width="36" height="36" viewBox="0 0 36 36" fill="none" xmlns="http://www.w3.org/2000/svg">
<path d="M13.326 7.97042C14.2009 5.41006 17.7386 5.33252 18.7759 7.73779L18.8636 7.97188L20.0443 11.4247C20.3149 12.2166 20.7522 12.9412 21.3266 13.5497C21.901 14.1582 22.5993 14.6364 23.3743 14.9522L23.6918 15.0707L27.1446 16.2499C29.7049 17.1248 29.7825 20.6625 27.3787 21.6998L27.1446 21.7876L23.6918 22.9683C22.8996 23.2387 22.1747 23.6759 21.566 24.2503C20.9572 24.8247 20.4787 25.5231 20.1628 26.2982L20.0443 26.6142L18.8651 30.0685C17.9902 32.6289 14.4525 32.7064 13.4167 30.3026L13.326 30.0685L12.1467 26.6157C11.8763 25.8236 11.4391 25.0987 10.8647 24.4899C10.2903 23.8811 9.59192 23.4027 8.8168 23.0868L8.50077 22.9683L5.04795 21.789C2.48612 20.9141 2.40858 17.3764 4.81386 16.3406L5.04795 16.2499L8.50077 15.0707C9.29263 14.8001 10.0173 14.3628 10.6258 13.7884C11.2343 13.214 11.7125 12.5157 12.0282 11.7407L12.1467 11.4247L13.326 7.97042ZM27.8 2.92578C28.0737 2.92578 28.342 3.00256 28.5742 3.14739C28.8065 3.29223 28.9934 3.49931 29.1139 3.7451L29.1841 3.91627L29.6962 5.41738L31.1987 5.92945C31.473 6.02264 31.7135 6.19516 31.8896 6.42516C32.0658 6.65515 32.1697 6.93226 32.1882 7.22136C32.2067 7.51047 32.1389 7.79856 31.9935 8.04912C31.8481 8.29967 31.6316 8.50142 31.3714 8.6288L31.1987 8.69903L29.6976 9.2111L29.1856 10.7137C29.0922 10.9879 28.9195 11.2282 28.6895 11.4042C28.4594 11.5802 28.1822 11.684 27.8931 11.7023C27.604 11.7206 27.316 11.6527 27.0655 11.5072C26.8151 11.3617 26.6134 11.1451 26.4862 10.8848L26.416 10.7137L25.9039 9.21256L24.4013 8.70049C24.127 8.6073 23.8866 8.43477 23.7104 8.20478C23.5343 7.97479 23.4304 7.69768 23.4119 7.40857C23.3934 7.11947 23.4612 6.83138 23.6066 6.58082C23.752 6.33026 23.9685 6.12851 24.2287 6.00114L24.4013 5.93091L25.9024 5.41884L26.4145 3.91627C26.5132 3.62721 26.6998 3.37627 26.9483 3.19864C27.1968 3.02101 27.4946 2.9256 27.8 2.92578Z" fill="#999999"/>
<path d="M13.326 7.97243C14.2009 5.41207 17.7386 5.33453 18.7759 7.7398L18.8636 7.97389L20.0443 11.4267C20.3149 12.2186 20.7522 12.9432 21.3266 13.5517C21.901 14.1602 22.5993 14.6385 23.3743 14.9542L23.6918 15.0727L27.1446 16.2519C29.7049 17.1268 29.7825 20.6645 27.3787 21.7018L27.1446 21.7896L23.6918 22.9703C22.8996 23.2407 22.1747 23.6779 21.566 24.2523C20.9572 24.8267 20.4787 25.5251 20.1628 26.3002L20.0443 26.6162L18.8651 30.0705C17.9902 32.6309 14.4525 32.7084 13.4167 30.3046L13.326 30.0705L12.1467 26.6177C11.8763 25.8256 11.4391 25.1007 10.8647 24.4919C10.2903 23.8831 9.59192 23.4047 8.8168 23.0888L8.50077 22.9703L5.04795 21.7911C2.48612 20.9161 2.40858 17.3785 4.81386 16.3426L5.04795 16.2519L8.50077 15.0727C9.29263 14.8021 10.0173 14.3648 10.6258 13.7904C11.2343 13.216 11.7125 12.5177 12.0282 11.7427L12.1467 11.4267L13.326 7.97243Z" fill="#CCCCCC"/>
</svg>
