<svg width="49" height="49" viewBox="0 0 49 49" fill="none" xmlns="http://www.w3.org/2000/svg">
<path d="M24.1885 0C24.9172 0.000117465 25.5078 0.590607 25.5078 1.31934V22.8691H47.0664C47.7952 22.8691 48.3857 23.4597 48.3857 24.1885C48.3856 24.9171 47.7951 25.5078 47.0664 25.5078H25.5078V47.0654C25.5077 47.794 24.9171 48.3856 24.1885 48.3857C23.4598 48.3857 22.8693 47.7941 22.8691 47.0654V25.5078H1.32031C0.591763 25.5076 0.000159924 24.917 0 24.1885C3.1852e-08 23.4598 0.591665 22.8693 1.32031 22.8691H22.8691V1.31934C22.8691 0.590534 23.4597 0 24.1885 0Z" fill="black" fill-opacity="0.3"/>
</svg>
