<svg width="49" height="49" viewBox="0 0 49 49" fill="none" xmlns="http://www.w3.org/2000/svg">
<path d="M24.1875 0C24.9163 0 25.5068 0.590534 25.5068 1.31934V22.8691H47.0664C47.7952 22.8692 48.3857 23.4597 48.3857 24.1885C48.3856 24.9171 47.7951 25.5078 47.0664 25.5078H25.5068V47.0654C25.5067 47.7941 24.9162 48.3857 24.1875 48.3857C23.4589 48.3856 22.8683 47.794 22.8682 47.0654V25.5078H1.32031C0.591609 25.5078 0.000159997 24.9171 0 24.1885C3.18569e-08 23.4597 0.591511 22.8691 1.32031 22.8691H22.8682V1.31934C22.8682 0.59065 23.4589 0.000188549 24.1875 0Z" fill="black" fill-opacity="0.3"/>
</svg>
