<svg width="28" height="6" viewBox="0 0 28 6" fill="none" xmlns="http://www.w3.org/2000/svg">
<path d="M2.74585 0C2.01761 0 1.31919 0.289294 0.80424 0.80424C0.289294 1.31919 0 2.01761 0 2.74585C0 3.47409 0.289294 4.17251 0.80424 4.68746C1.31919 5.20241 2.01761 5.4917 2.74585 5.4917C3.47409 5.4917 4.17251 5.20241 4.68746 4.68746C5.20241 4.17251 5.4917 3.47409 5.4917 2.74585C5.4917 2.01761 5.20241 1.31919 4.68746 0.80424C4.17251 0.289294 3.47409 0 2.74585 0ZM10.9834 2.74585C10.9834 2.01761 11.2727 1.31919 11.7876 0.80424C12.3026 0.289294 13.001 0 13.7292 0C14.4575 0 15.1559 0.289294 15.6709 0.80424C16.1858 1.31919 16.4751 2.01761 16.4751 2.74585C16.4751 3.47409 16.1858 4.17251 15.6709 4.68746C15.1559 5.20241 14.4575 5.4917 13.7292 5.4917C13.001 5.4917 12.3026 5.20241 11.7876 4.68746C11.2727 4.17251 10.9834 3.47409 10.9834 2.74585ZM21.9668 2.74585C21.9668 2.01761 22.2561 1.31919 22.771 0.80424C23.286 0.289294 23.9844 0 24.7126 0C25.4409 0 26.1393 0.289294 26.6543 0.80424C27.1692 1.31919 27.4585 2.01761 27.4585 2.74585C27.4585 3.47409 27.1692 4.17251 26.6543 4.68746C26.1393 5.20241 25.4409 5.4917 24.7126 5.4917C23.9844 5.4917 23.286 5.20241 22.771 4.68746C22.2561 4.17251 21.9668 3.47409 21.9668 2.74585Z" fill="#999999"/>
</svg>
