<svg width="16" height="17" viewBox="0 0 16 17" fill="none" xmlns="http://www.w3.org/2000/svg">
<path d="M0 16.3032V12.4538L11.9557 0.520796C12.1368 0.354745 12.337 0.226433 12.5562 0.13586C12.7754 0.0452867 13.0054 0 13.2463 0C13.4873 0 13.7212 0.0452867 13.9483 0.13586C14.1753 0.226433 14.3716 0.362293 14.537 0.54344L15.7824 1.81147C15.9635 1.97752 16.0958 2.17376 16.1791 2.40019C16.2624 2.62663 16.3038 2.85306 16.3032 3.07949C16.3032 3.32102 16.2618 3.55138 16.1791 3.77057C16.0964 3.98975 15.9641 4.18962 15.7824 4.37016L3.84936 16.3032H0ZM13.2237 4.34752L14.4917 3.07949L13.2237 1.81147L11.9557 3.07949L13.2237 4.34752Z" fill="white"/>
</svg>
