<svg width="18" height="22" viewBox="0 0 18 22" fill="none" xmlns="http://www.w3.org/2000/svg">
<path fill-rule="evenodd" clip-rule="evenodd" d="M11.8744 0C12.2534 9.62738e-06 12.6257 0.0997728 12.9539 0.289263C13.2821 0.478753 13.5546 0.751293 13.7441 1.07949H15.1129C15.6855 1.07949 16.2346 1.30696 16.6395 1.71184C17.0444 2.11673 17.2719 2.66588 17.2719 3.23847V16.1924C17.2719 17.6239 16.7032 18.9967 15.691 20.009C14.6788 21.0212 13.3059 21.5898 11.8744 21.5898H2.15898C1.58638 21.5898 1.03724 21.3624 0.632351 20.9575C0.227463 20.5526 0 20.0034 0 19.4308V3.23847C0 2.66588 0.227463 2.11673 0.632351 1.71184C1.03724 1.30696 1.58638 1.07949 2.15898 1.07949H3.52778C3.71726 0.751293 3.9898 0.478753 4.318 0.289263C4.64619 0.0997728 5.01849 9.62738e-06 5.39746 0H11.8744ZM11.6844 7.96557L7.10521 12.5459L5.57773 11.0184C5.37414 10.8217 5.10146 10.7129 4.81842 10.7154C4.53538 10.7178 4.26463 10.8314 4.06448 11.0315C3.86433 11.2317 3.7508 11.5024 3.74835 11.7855C3.74589 12.0685 3.85469 12.3412 4.05133 12.5448L6.26429 14.7588C6.37456 14.8691 6.50549 14.9566 6.64959 15.0164C6.79369 15.0761 6.94815 15.1068 7.10413 15.1068C7.26012 15.1068 7.41457 15.0761 7.55867 15.0164C7.70278 14.9566 7.8337 14.8691 7.94398 14.7588L13.2119 9.49197C13.3121 9.39167 13.3916 9.27262 13.4458 9.1416C13.5 9.01059 13.5279 8.87018 13.5279 8.72839C13.5278 8.5866 13.4998 8.44621 13.4455 8.31523C13.3912 8.18425 13.3117 8.06525 13.2114 7.96503C13.1111 7.8648 12.992 7.78532 12.861 7.7311C12.73 7.67689 12.5896 7.64901 12.4478 7.64906C12.306 7.64911 12.1656 7.67709 12.0346 7.73139C11.9036 7.7857 11.7846 7.86527 11.6844 7.96557ZM11.3347 2.15898H5.9372C5.81087 2.15894 5.68853 2.20321 5.59149 2.28409C5.49444 2.36496 5.42883 2.47731 5.40609 2.60157L5.39746 2.69873V3.77822C5.39741 3.90455 5.44168 4.02689 5.52256 4.12394C5.60343 4.22099 5.71578 4.28659 5.84005 4.30933L5.9372 4.31797H11.3347C11.461 4.31801 11.5833 4.27374 11.6804 4.19286C11.7774 4.11199 11.843 3.99964 11.8658 3.87538L11.8744 3.77822V2.69873C11.8744 2.5724 11.8302 2.45006 11.7493 2.35301C11.6684 2.25596 11.5561 2.19036 11.4318 2.16762L11.3347 2.15898Z" fill="#FF0000"/>
</svg>
