<svg width="14" height="14" viewBox="0 0 14 14" fill="none" xmlns="http://www.w3.org/2000/svg">
<path d="M7.7419 0.535714L1.48475 6.79286C1.24368 7.03393 1.12368 7.15393 1.04761 7.30286C0.970469 7.45179 0.942612 7.62 0.886898 7.95643L0.051183 12.9675C-0.00453126 13.3039 -0.0334597 13.4732 0.0640403 13.5707C0.16154 13.6682 0.330826 13.6393 0.667255 13.5836L5.6794 12.7479C6.01476 12.6921 6.18297 12.6643 6.33297 12.5871C6.48083 12.5111 6.60083 12.3911 6.8419 12.15L13.099 5.89286C13.4558 5.53607 13.6348 5.35714 13.6348 5.13536C13.6348 4.91357 13.4558 4.73464 13.099 4.37786L9.2569 0.535714C8.90011 0.178929 8.72118 0 8.4994 0C8.27761 0 8.09868 0.178929 7.7419 0.535714Z" fill="#0088FF"/>
</svg>
