<svg width="25" height="25" viewBox="0 0 25 25" fill="none" xmlns="http://www.w3.org/2000/svg">
<path d="M12.5003 13.5413C13.0756 13.5413 13.542 13.075 13.542 12.4997C13.542 11.9244 13.0756 11.458 12.5003 11.458C11.925 11.458 11.4587 11.9244 11.4587 12.4997C11.4587 13.075 11.925 13.5413 12.5003 13.5413Z" fill="white"/>
<path d="M19.792 13.5413C20.3673 13.5413 20.8337 13.075 20.8337 12.4997C20.8337 11.9244 20.3673 11.458 19.792 11.458C19.2167 11.458 18.7503 11.9244 18.7503 12.4997C18.7503 13.075 19.2167 13.5413 19.792 13.5413Z" fill="white"/>
<path d="M5.20866 13.5413C5.78396 13.5413 6.25033 13.075 6.25033 12.4997C6.25033 11.9244 5.78396 11.458 5.20866 11.458C4.63336 11.458 4.16699 11.9244 4.16699 12.4997C4.16699 13.075 4.63336 13.5413 5.20866 13.5413Z" fill="white"/>
<path d="M12.5003 13.5413C13.0756 13.5413 13.542 13.075 13.542 12.4997C13.542 11.9244 13.0756 11.458 12.5003 11.458C11.925 11.458 11.4587 11.9244 11.4587 12.4997C11.4587 13.075 11.925 13.5413 12.5003 13.5413Z" stroke="white" stroke-width="1.3" stroke-linecap="round" stroke-linejoin="round"/>
<path d="M19.792 13.5413C20.3673 13.5413 20.8337 13.075 20.8337 12.4997C20.8337 11.9244 20.3673 11.458 19.792 11.458C19.2167 11.458 18.7503 11.9244 18.7503 12.4997C18.7503 13.075 19.2167 13.5413 19.792 13.5413Z" stroke="white" stroke-width="1.3" stroke-linecap="round" stroke-linejoin="round"/>
<path d="M5.20866 13.5413C5.78396 13.5413 6.25033 13.075 6.25033 12.4997C6.25033 11.9244 5.78396 11.458 5.20866 11.458C4.63336 11.458 4.16699 11.9244 4.16699 12.4997C4.16699 13.075 4.63336 13.5413 5.20866 13.5413Z" stroke="white" stroke-width="1.3" stroke-linecap="round" stroke-linejoin="round"/>
</svg>
