<svg width="33" height="33" viewBox="0 0 33 33" fill="none" xmlns="http://www.w3.org/2000/svg">
<path d="M16.1339 32.2678C12.3693 32.2678 9.03797 31.1253 6.13984 28.8402C3.24172 26.5552 1.35943 23.6344 0.49298 20.0777C0.37347 19.6296 0.463103 19.2191 0.761878 18.8462C1.06065 18.4733 1.464 18.2564 1.97192 18.1955C2.44996 18.1357 2.88319 18.2253 3.2716 18.4643C3.66 18.7034 3.9289 19.0619 4.07829 19.5399C4.79535 22.2289 6.27429 24.4249 8.51511 26.128C10.7559 27.831 13.2955 28.6825 16.1339 28.6825C19.6296 28.6825 22.5952 27.4653 25.0308 25.0308C27.4665 22.5964 28.6837 19.6308 28.6825 16.1339C28.6813 12.637 27.4641 9.67197 25.0308 7.23874C22.5976 4.80551 19.632 3.5877 16.1339 3.58531C14.0723 3.58531 12.1452 4.06335 10.3526 5.01944C8.55993 5.97552 7.05111 7.29013 5.82613 8.96328H8.96328C9.4712 8.96328 9.89725 9.13537 10.2414 9.47956C10.5856 9.82375 10.7571 10.2492 10.7559 10.7559C10.7547 11.2627 10.5826 11.6887 10.2396 12.0341C9.89665 12.3795 9.4712 12.551 8.96328 12.5486H1.79266C1.28474 12.5486 0.85928 12.3765 0.516285 12.0323C0.17329 11.6881 0.0011951 11.2627 0 10.7559V3.58531C0 3.07739 0.172095 2.65194 0.516285 2.30894C0.860475 1.96595 1.28593 1.79385 1.79266 1.79266C2.29938 1.79146 2.72543 1.96356 3.07082 2.30894C3.4162 2.65433 3.5877 3.07978 3.58531 3.58531V6.0054C5.10907 4.09323 6.96925 2.61429 9.16585 1.56857C11.3624 0.522858 13.6851 0 16.1339 0C18.3747 0 20.4739 0.426055 22.4315 1.27816C24.3891 2.13027 26.0921 3.27996 27.5406 4.72723C28.989 6.1745 30.1393 7.87753 30.9914 9.8363C31.8435 11.7951 32.269 13.8943 32.2678 16.1339C32.2666 18.3735 31.8411 20.4727 30.9914 22.4315C30.1417 24.3903 28.9914 26.0933 27.5406 27.5406C26.0897 28.9878 24.3867 30.1381 22.4315 30.9914C20.4763 31.8447 18.3771 32.2702 16.1339 32.2678ZM17.9266 15.4168L22.4082 19.8985C22.7368 20.2271 22.9012 20.6454 22.9012 21.1533C22.9012 21.6613 22.7368 22.0795 22.4082 22.4082C22.0795 22.7368 21.6613 22.9012 21.1533 22.9012C20.6454 22.9012 20.2271 22.7368 19.8985 22.4082L14.879 17.3888C14.6998 17.2095 14.5653 17.0081 14.4757 16.7846C14.3861 16.5611 14.3412 16.3293 14.3412 16.0891V8.96328C14.3412 8.45536 14.5133 8.0299 14.8575 7.68691C15.2017 7.34391 15.6272 7.17182 16.1339 7.17062C16.6406 7.16943 17.0667 7.34152 17.4121 7.68691C17.7574 8.03229 17.9289 8.45775 17.9266 8.96328V15.4168Z" fill="white"/>
</svg>
