<svg width="33" height="25" viewBox="0 0 33 25" fill="none" xmlns="http://www.w3.org/2000/svg">
<path d="M21.9459 12.0703C20.5358 12.0703 19.1724 11.4407 18.1053 10.2981C17.0677 9.18369 16.434 7.69754 16.3222 6.11469C16.2029 4.42622 16.7179 2.87355 17.772 1.74196C18.8261 0.610372 20.2999 0 21.9459 0C23.5801 0 25.0581 0.621344 26.1087 1.75019C27.1697 2.89001 27.6861 4.43994 27.5668 6.114C27.4522 7.69891 26.8192 9.18437 25.7837 10.2974C24.7193 11.4407 23.3566 12.0703 21.9459 12.0703ZM30.9869 24.1405H12.9055C12.6148 24.1421 12.3276 24.0769 12.066 23.9501C11.8045 23.8232 11.5755 23.638 11.3967 23.4088C11.2071 23.1602 11.0761 22.8721 11.0137 22.5658C10.9512 22.2595 10.9588 21.943 11.036 21.6401C11.6134 19.3213 13.044 17.3983 15.1728 16.0795C17.0622 14.9095 19.4673 14.2649 21.9459 14.2649C24.4731 14.2649 26.8151 14.8821 28.7155 16.0514C30.8491 17.3634 32.2817 19.2973 32.8564 21.6442C32.9326 21.9473 32.9394 22.2638 32.8762 22.5699C32.8131 22.8761 32.6816 23.164 32.4916 23.4122C32.313 23.6404 32.0845 23.8247 31.8237 23.9509C31.5629 24.0772 31.2767 24.142 30.9869 24.1405ZM8.98404 12.3446C6.57067 12.3446 4.44877 10.1006 4.25195 7.34297C4.15456 5.9302 4.59485 4.62373 5.48641 3.66566C6.36836 2.71718 7.61242 2.19459 8.98404 2.19459C10.3557 2.19459 11.5901 2.71993 12.4769 3.67389C13.3753 4.63951 13.8142 5.94323 13.7113 7.34435C13.5145 10.1013 11.3933 12.3446 8.98404 12.3446ZM13.4871 14.5015C12.2807 13.9117 10.715 13.6168 8.98472 13.6168C6.96433 13.6168 5.00222 14.1435 3.45915 15.0995C1.70965 16.1851 0.532797 17.7659 0.0575301 19.6745C-0.0120213 19.9491 -0.0185996 20.2358 0.0382872 20.5132C0.095174 20.7906 0.214053 21.0516 0.386033 21.2766C0.54922 21.4861 0.758281 21.6554 0.997136 21.7714C1.23599 21.8874 1.49828 21.9471 1.76383 21.9459H9.37632C9.50481 21.9459 9.62921 21.9008 9.72785 21.8185C9.82648 21.7361 9.89309 21.6218 9.91606 21.4954C9.9236 21.4522 9.9332 21.4089 9.94417 21.3664C10.5257 19.0306 11.8884 17.0568 13.902 15.618C13.976 15.5646 14.0356 15.4936 14.0753 15.4113C14.115 15.3291 14.1335 15.2383 14.1292 15.1471C14.1249 15.0559 14.0979 14.9672 14.0507 14.8891C14.0035 14.811 13.9375 14.7459 13.8588 14.6997C13.7511 14.6366 13.6277 14.57 13.4871 14.5015Z" fill="#999999"/>
</svg>
