<svg width="29" height="34" viewBox="0 0 29 34" fill="none" xmlns="http://www.w3.org/2000/svg">
<path fill-rule="evenodd" clip-rule="evenodd" d="M2.16017 13.2547C2.16069 10.9276 2.77373 8.64167 3.93767 6.62658C5.1016 4.6115 6.77544 2.93828 8.79095 1.77508C10.8065 0.611874 13.0926 -0.000326524 15.4197 1.30652e-07C17.7468 0.000326785 20.0328 0.613169 22.048 1.77694C24.0632 2.9407 25.7365 4.6144 26.8999 6.62981C28.0633 8.64522 28.6757 10.9313 28.6755 13.2584C28.6754 15.5855 28.0628 17.8716 26.8992 19.8868C25.7356 21.9021 24.062 23.5756 22.0467 24.7392V30.6554C22.0467 31.3147 21.7848 31.947 21.3186 32.4131C20.8524 32.8793 20.2202 33.1412 19.5609 33.1412H12.932C12.2728 33.1412 11.6405 32.8793 11.1743 32.4131C10.7081 31.947 10.4462 31.3147 10.4462 30.6554V28.1696H8.40122C7.18939 28.1697 6.01926 27.7271 5.11076 26.9251C4.20227 26.1231 3.61798 25.0169 3.46771 23.8144L3.2357 21.9534L1.99776 21.7065C1.63715 21.6343 1.29704 21.4829 1.00198 21.2634C0.70691 21.0439 0.464233 20.7616 0.291441 20.4369C0.11865 20.1123 0.0200505 19.7533 0.00275159 19.386C-0.0145474 19.0186 0.0498853 18.652 0.191404 18.3125L2.16348 13.5762L2.16017 13.2547Z" fill="white"/>
</svg>
