<svg width="19" height="17" viewBox="0 0 19 17" fill="none" xmlns="http://www.w3.org/2000/svg">
<path d="M15.5942 5.9409L15.3892 6.41257C15.3571 6.48937 15.3031 6.55498 15.2338 6.60113C15.1646 6.64728 15.0832 6.6719 15 6.6719C14.9168 6.6719 14.8354 6.64728 14.7662 6.60113C14.6969 6.55498 14.6429 6.48937 14.6108 6.41257L14.4058 5.9409C14.0454 5.1065 13.3853 4.4375 12.5558 4.0659L11.9233 3.7834C11.8466 3.7481 11.7816 3.69154 11.736 3.62042C11.6905 3.54931 11.6662 3.46661 11.6662 3.38215C11.6662 3.29769 11.6905 3.21499 11.736 3.14388C11.7816 3.07276 11.8466 3.0162 11.9233 2.9809L12.5208 2.71507C13.3712 2.33288 14.0425 1.63914 14.3967 0.776734L14.6075 0.267568C14.6385 0.188696 14.6925 0.120983 14.7625 0.0732551C14.8325 0.0255276 14.9153 0 15 0C15.0847 0 15.1675 0.0255276 15.2375 0.0732551C15.3075 0.120983 15.3615 0.188696 15.3925 0.267568L15.6033 0.775901C15.9571 1.63846 16.6282 2.33251 17.4783 2.71507L18.0767 2.98173C18.1532 3.01713 18.2179 3.07369 18.2633 3.14471C18.3087 3.21574 18.3329 3.29827 18.3329 3.38257C18.3329 3.46686 18.3087 3.5494 18.2633 3.62042C18.2179 3.69145 18.1532 3.748 18.0767 3.7834L17.4433 4.06507C16.614 4.43704 15.9542 5.10634 15.5942 5.9409ZM0.826667 1.66757H10V3.33423H1.66667V15.0009L9.41 7.2559C9.48739 7.17842 9.5793 7.11696 9.68047 7.07502C9.78163 7.03308 9.89007 7.0115 9.99958 7.0115C10.1091 7.0115 10.2175 7.03308 10.3187 7.07502C10.4199 7.11696 10.5118 7.17842 10.5892 7.2559L15 11.6759V8.33424H16.6667V15.8401C16.6651 16.0589 16.5776 16.2684 16.4229 16.4232C16.2682 16.5781 16.0588 16.6658 15.84 16.6676H0.826667C0.607345 16.6673 0.397081 16.5801 0.242075 16.4249C0.0870684 16.2697 -1.11213e-07 16.0594 0 15.8401V2.49507C0.00152504 2.27622 0.0890836 2.06675 0.243761 1.91192C0.398438 1.75708 0.607817 1.66931 0.826667 1.66757ZM5 8.33424C4.55797 8.33424 4.13405 8.15864 3.82149 7.84608C3.50893 7.53352 3.33333 7.1096 3.33333 6.66757C3.33333 6.22554 3.50893 5.80162 3.82149 5.48906C4.13405 5.1765 4.55797 5.0009 5 5.0009C5.44203 5.0009 5.86595 5.1765 6.17851 5.48906C6.49107 5.80162 6.66667 6.22554 6.66667 6.66757C6.66667 7.1096 6.49107 7.53352 6.17851 7.84608C5.86595 8.15864 5.44203 8.33424 5 8.33424Z" fill="#999999"/>
</svg>
