<svg width="18" height="18" viewBox="0 0 18 18" fill="none" xmlns="http://www.w3.org/2000/svg">
<path d="M8.08785 1.46561C8.12243 1.28045 8.22069 1.11321 8.36559 0.992866C8.5105 0.872519 8.69293 0.806641 8.8813 0.806641C9.06966 0.806641 9.2521 0.872519 9.397 0.992866C9.54191 1.11321 9.64017 1.28045 9.67475 1.46561L10.5231 5.95189C10.5833 6.27085 10.7383 6.56423 10.9679 6.79375C11.1974 7.02327 11.4908 7.17828 11.8097 7.23853L16.296 8.08687C16.4812 8.12145 16.6484 8.21971 16.7688 8.36462C16.8891 8.50952 16.955 8.69196 16.955 8.88032C16.955 9.06869 16.8891 9.25112 16.7688 9.39603C16.6484 9.54094 16.4812 9.63919 16.296 9.67377L11.8097 10.5221C11.4908 10.5824 11.1974 10.7374 10.9679 10.9669C10.7383 11.1964 10.5833 11.4898 10.5231 11.8088L9.67475 16.295C9.64017 16.4802 9.54191 16.6474 9.397 16.7678C9.2521 16.8881 9.06966 16.954 8.8813 16.954C8.69293 16.954 8.5105 16.8881 8.36559 16.7678C8.22069 16.6474 8.12243 16.4802 8.08785 16.295L7.2395 11.8088C7.17925 11.4898 7.02425 11.1964 6.79473 10.9669C6.5652 10.7374 6.27182 10.5824 5.95287 10.5221L1.46659 9.67377C1.28143 9.63919 1.11419 9.54094 0.993843 9.39603C0.873496 9.25112 0.807617 9.06869 0.807617 8.88032C0.807617 8.69196 0.873496 8.50952 0.993843 8.36462C1.11419 8.21971 1.28143 8.12145 1.46659 8.08687L5.95287 7.23853C6.27182 7.17828 6.5652 7.02327 6.79473 6.79375C7.02425 6.56423 7.17925 6.27085 7.2395 5.95189L8.08785 1.46561Z" stroke="#9810FA" stroke-width="1.61435" stroke-linecap="round" stroke-linejoin="round"/>
</svg>
