<svg width="36" height="36" viewBox="0 0 36 36" fill="none" xmlns="http://www.w3.org/2000/svg">
<path d="M27.7991 2.92578C28.0728 2.92578 28.341 3.00256 28.5732 3.14739C28.8055 3.29223 28.9925 3.49931 29.1129 3.7451L29.1831 3.91627L29.6952 5.41738L31.1978 5.92945C31.472 6.02264 31.7125 6.19516 31.8887 6.42516C32.0648 6.65515 32.1687 6.93226 32.1872 7.22136C32.2057 7.51047 32.1379 7.79856 31.9925 8.04912C31.8471 8.29967 31.6306 8.50142 31.3704 8.6288L31.1978 8.69903L29.6967 9.2111L29.1846 10.7137C29.0912 10.9879 28.9186 11.2282 28.6885 11.4042C28.4584 11.5802 28.1813 11.684 27.8922 11.7023C27.6031 11.7206 27.315 11.6527 27.0646 11.5072C26.8141 11.3617 26.6125 11.1451 26.4852 10.8848L26.415 10.7137L25.9029 9.21256L24.4004 8.70049C24.1261 8.6073 23.8856 8.43477 23.7095 8.20478C23.5333 7.97479 23.4294 7.69768 23.4109 7.40857C23.3924 7.11947 23.4602 6.83138 23.6056 6.58082C23.751 6.33026 23.9675 6.12851 24.2277 6.00114L24.4004 5.93091L25.9015 5.41884L26.4135 3.91627C26.5122 3.62721 26.6988 3.37627 26.9473 3.19864C27.1958 3.02101 27.4936 2.9256 27.7991 2.92578Z" fill="#999999"/>
</svg>
