<svg width="36" height="36" viewBox="0 0 36 36" fill="none" xmlns="http://www.w3.org/2000/svg">
<path d="M13.325 7.97243C14.1999 5.41207 17.7376 5.33453 18.7749 7.7398L18.8627 7.97389L20.0434 11.4267C20.3139 12.2186 20.7512 12.9432 21.3256 13.5517C21.9001 14.1602 22.5983 14.6385 23.3733 14.9542L23.6908 15.0727L27.1436 16.2519C29.704 17.1268 29.7815 20.6645 27.3777 21.7018L27.1436 21.7896L23.6908 22.9703C22.8986 23.2407 22.1737 23.6779 21.565 24.2523C20.9562 24.8267 20.4777 25.5251 20.1619 26.3002L20.0434 26.6162L18.8641 30.0705C17.9892 32.6309 14.4515 32.7084 13.4157 30.3046L13.325 30.0705L12.1457 26.6177C11.8753 25.8256 11.4382 25.1007 10.8637 24.4919C10.2893 23.8831 9.59094 23.4047 8.81582 23.0888L8.4998 22.9703L5.04697 21.7911C2.48515 20.9161 2.4076 17.3785 4.81288 16.3426L5.04697 16.2519L8.4998 15.0727C9.29166 14.8021 10.0163 14.3648 10.6248 13.7904C11.2333 13.216 11.7115 12.5177 12.0272 11.7427L12.1457 11.4267L13.325 7.97243Z" fill="#999999"/>
</svg>
