<svg width="17" height="17" viewBox="0 0 17 17" fill="none" xmlns="http://www.w3.org/2000/svg">
<path d="M9.03511 1.79059L1.48475 9.34095C1.24368 9.58202 1.12368 9.70202 1.04761 9.85095C0.970469 9.99988 0.942612 10.1681 0.886898 10.5045L0.051183 15.5156C-0.00453126 15.852 -0.0334597 16.0213 0.0640403 16.1188C0.16154 16.2163 0.330826 16.1874 0.667255 16.1317L5.6794 15.2959C6.01475 15.2402 6.18297 15.2124 6.33297 15.1352C6.48083 15.0592 6.60083 14.9392 6.8419 14.6981L14.3923 7.14773C15.4819 6.05809 16.0273 5.51273 16.1473 4.85809C16.1955 4.60095 16.1955 4.33738 16.1473 4.08023C16.0273 3.42559 15.483 2.88023 14.3923 1.79059C13.3015 0.700948 12.7573 0.155591 12.1026 0.0355908C11.8455 -0.0118636 11.5819 -0.0118636 11.3248 0.0355908C10.6701 0.155591 10.1248 0.699877 9.03511 1.79059Z" fill="#0088FF" fill-opacity="0.3"/>
</svg>
