<svg width="19" height="19" viewBox="0 0 19 19" fill="none" xmlns="http://www.w3.org/2000/svg">
<path d="M10.541 2.08902L1.73221 10.8978C1.45096 11.179 1.31096 11.319 1.22221 11.4928C1.13221 11.6665 1.09971 11.8628 1.03471 12.2553L0.0597135 18.1015C-0.00528647 18.494 -0.0390364 18.6915 0.0747136 18.8053C0.188464 18.919 0.385964 18.8853 0.778464 18.8203L6.62596 17.8453C7.01721 17.7803 7.21346 17.7478 7.38846 17.6578C7.56096 17.569 7.70096 17.429 7.98221 17.1478L16.791 8.33902C18.0622 7.06777 18.6985 6.43152 18.8385 5.66777C18.8947 5.36777 18.8947 5.06027 18.8385 4.76027C18.6985 3.99652 18.0635 3.36027 16.791 2.08902C15.5185 0.817773 14.8835 0.181523 14.1197 0.0415226C13.8197 -0.0138409 13.5122 -0.0138409 13.2122 0.0415226C12.4485 0.181523 11.8122 0.816523 10.541 2.08902Z" fill="#0088FF"/>
</svg>
