<svg width="22" height="25" viewBox="0 0 22 25" fill="none" xmlns="http://www.w3.org/2000/svg">
<path d="M10.974 12.0703C9.56397 12.0703 8.20057 11.4407 7.13345 10.2981C6.09582 9.18369 5.46213 7.69754 5.35034 6.11469C5.23101 4.42622 5.74606 2.87355 6.80015 1.74196C7.85424 0.610372 9.32805 0 10.974 0C12.6083 0 14.0862 0.621344 15.1369 1.75019C16.1978 2.89001 16.7142 4.43994 16.5949 6.114C16.4804 7.69891 15.8474 9.18437 14.8118 10.2974C13.7474 11.4407 12.3847 12.0703 10.974 12.0703ZM20.015 24.1405H1.93363C1.64293 24.1421 1.35574 24.0769 1.09417 23.9501C0.832596 23.8232 0.603617 23.638 0.424851 23.4088C0.235226 23.1603 0.104277 22.8721 0.0418063 22.5658C-0.0206645 22.2595 -0.0130382 21.943 0.0641148 21.6401C0.641567 19.3213 2.07217 17.3983 4.20092 16.0795C6.09033 14.9095 8.49547 14.2649 10.974 14.2649C13.5012 14.2649 15.8432 14.8821 17.7436 16.0514C19.8772 17.3634 21.3098 19.2973 21.8846 21.6442C21.9608 21.9473 21.9675 22.2638 21.9044 22.5699C21.8412 22.8761 21.7097 23.164 21.5197 23.4122C21.3411 23.6404 21.1127 23.8247 20.8519 23.9509C20.591 24.0772 20.3048 24.142 20.015 24.1405Z" fill="#A2D3FE"/>
</svg>
