<svg width="36" height="36" viewBox="0 0 36 36" fill="none" xmlns="http://www.w3.org/2000/svg">
<path d="M13.325 7.9714C14.1999 5.41104 17.7376 5.3335 18.7749 7.73877L18.8627 7.97286L20.0434 11.4257C20.3139 12.2175 20.7512 12.9422 21.3256 13.5507C21.9001 14.1592 22.5983 14.6374 23.3733 14.9531L23.6908 15.0716L27.1436 16.2509C29.704 17.1258 29.7815 20.6635 27.3777 21.7008L27.1436 21.7886L23.6908 22.9693C22.8986 23.2397 22.1737 23.6768 21.565 24.2513C20.9562 24.8257 20.4777 25.5241 20.1619 26.2992L20.0434 26.6152L18.8641 30.0695C17.9892 32.6299 14.4515 32.7074 13.4157 30.3036L13.325 30.0695L12.1457 26.6167C11.8753 25.8245 11.4382 25.0996 10.8637 24.4909C10.2893 23.8821 9.59094 23.4036 8.81582 23.0878L8.4998 22.9693L5.04697 21.79C2.48515 20.9151 2.4076 17.3774 4.81288 16.3416L5.04697 16.2509L8.4998 15.0716C9.29166 14.8011 10.0163 14.3638 10.6248 13.7894C11.2333 13.2149 11.7115 12.5167 12.0272 11.7417L12.1457 11.4257L13.325 7.9714ZM27.7991 2.92676C28.0728 2.92676 28.341 3.00354 28.5732 3.14837C28.8055 3.2932 28.9925 3.50028 29.1129 3.74607L29.1831 3.91725L29.6952 5.41835L31.1978 5.93043C31.472 6.02362 31.7125 6.19614 31.8887 6.42613C32.0648 6.65613 32.1687 6.93323 32.1872 7.22234C32.2057 7.51145 32.1379 7.79953 31.9925 8.05009C31.8471 8.30065 31.6306 8.5024 31.3704 8.62978L31.1978 8.7L29.6967 9.21207L29.1846 10.7146C29.0912 10.9889 28.9186 11.2292 28.6885 11.4052C28.4584 11.5812 28.1813 11.6849 27.8922 11.7033C27.6031 11.7216 27.315 11.6537 27.0646 11.5082C26.8141 11.3626 26.6125 11.146 26.4852 10.8858L26.415 10.7146L25.9029 9.21354L24.4004 8.70147C24.1261 8.60828 23.8856 8.43575 23.7095 8.20576C23.5333 7.97576 23.4294 7.69866 23.4109 7.40955C23.3924 7.12045 23.4602 6.83236 23.6056 6.5818C23.751 6.33124 23.9675 6.12949 24.2277 6.00212L24.4004 5.93189L25.9015 5.41982L26.4135 3.91725C26.5122 3.62819 26.6988 3.37725 26.9473 3.19962C27.1958 3.02199 27.4936 2.92657 27.7991 2.92676Z" fill="#999999"/>
<path d="M13.325 7.97243C14.1999 5.41207 17.7376 5.33453 18.7749 7.7398L18.8627 7.97389L20.0434 11.4267C20.3139 12.2186 20.7512 12.9432 21.3256 13.5517C21.9001 14.1602 22.5983 14.6385 23.3733 14.9542L23.6908 15.0727L27.1436 16.2519C29.704 17.1268 29.7815 20.6645 27.3777 21.7018L27.1436 21.7896L23.6908 22.9703C22.8986 23.2407 22.1737 23.6779 21.565 24.2523C20.9562 24.8267 20.4777 25.5251 20.1619 26.3002L20.0434 26.6162L18.8641 30.0705C17.9892 32.6309 14.4515 32.7084 13.4157 30.3046L13.325 30.0705L12.1457 26.6177C11.8753 25.8256 11.4382 25.1007 10.8637 24.4919C10.2893 23.8831 9.59094 23.4047 8.81582 23.0888L8.4998 22.9703L5.04697 21.7911C2.48515 20.9161 2.4076 17.3785 4.81288 16.3426L5.04697 16.2519L8.4998 15.0727C9.29166 14.8021 10.0163 14.3648 10.6248 13.7904C11.2333 13.216 11.7115 12.5177 12.0272 11.7427L12.1457 11.4267L13.325 7.97243Z" fill="#CCCCCC"/>
</svg>
