<svg width="18" height="18" viewBox="0 0 18 18" fill="none" xmlns="http://www.w3.org/2000/svg">
<path d="M14.375 0C15.1375 0 15.8688 0.302901 16.4079 0.842068C16.9471 1.38124 17.25 2.1125 17.25 2.875V14.375C17.25 15.1375 16.9471 15.8688 16.4079 16.4079C15.8688 16.9471 15.1375 17.25 14.375 17.25H2.875C2.1125 17.25 1.38124 16.9471 0.842068 16.4079C0.302901 15.8688 0 15.1375 0 14.375V2.875C0 2.1125 0.302901 1.38124 0.842068 0.842068C1.38124 0.302901 2.1125 0 2.875 0H14.375ZM12.1775 6.03079C11.9978 5.85113 11.7541 5.7502 11.5 5.7502C11.2459 5.7502 11.0022 5.85113 10.8225 6.03079L8.625 8.22729L7.38587 6.98913C7.20616 6.80947 6.96245 6.70854 6.70833 6.70854C6.45422 6.70854 6.21051 6.80947 6.03079 6.98913L3.15579 9.86413C2.97613 10.0438 2.8752 10.2876 2.8752 10.5417C2.8752 10.7958 2.97613 11.0395 3.15579 11.2192L3.24588 11.2987C3.43026 11.4418 3.6605 11.5126 3.8934 11.498C4.1263 11.4833 4.34586 11.3842 4.51087 11.2192L6.70833 9.02271L7.94746 10.2609L8.03754 10.3404C8.22193 10.4834 8.45217 10.5543 8.68507 10.5396C8.91797 10.525 9.13752 10.4259 9.30254 10.2609L11.5 8.06437L12.7391 9.30254C12.9199 9.47711 13.1619 9.5737 13.4132 9.57152C13.6645 9.56934 13.9049 9.46855 14.0825 9.29087C14.2602 9.11318 14.361 8.87282 14.3632 8.62155C14.3654 8.37028 14.2688 8.1282 14.0942 7.94746L12.1775 6.03079Z" fill="#999999"/>
</svg>
