<svg width="17" height="13" viewBox="0 0 17 13" fill="none" xmlns="http://www.w3.org/2000/svg">
<path d="M13.7925 1.62265H12.5058L11.6944 0.811325C11.2247 0.341568 10.4004 0 9.7359 0H6.4906C5.82612 0 5.00182 0.341568 4.53206 0.811325L3.72074 1.62265H2.43397C1.09204 1.62265 0 2.71469 0 4.05662V10.5472C0 11.8892 1.09204 12.9812 2.43397 12.9812H13.7925C15.1345 12.9812 16.2265 11.8892 16.2265 10.5472V4.05662C16.2265 2.71469 15.1345 1.62265 13.7925 1.62265ZM8.11325 9.7359C7.36002 9.73579 6.63769 9.43647 6.10515 8.90378C5.57262 8.3711 5.2735 7.64868 5.27361 6.89545C5.27372 6.14222 5.57304 5.41989 6.10573 4.88736C6.63842 4.35482 7.36083 4.05571 8.11406 4.05581C8.86729 4.05592 9.58962 4.35524 10.1222 4.88793C10.6547 5.42062 10.9538 6.14304 10.9537 6.89626C10.9536 7.64949 10.6543 8.37182 10.1216 8.90436C9.58889 9.43689 8.86648 9.73601 8.11325 9.7359ZM12.9812 5.92186C12.8427 5.92186 12.7055 5.89458 12.5776 5.84158C12.4496 5.78857 12.3333 5.71088 12.2354 5.61294C12.1375 5.515 12.0598 5.39873 12.0068 5.27076C11.9538 5.1428 11.9265 5.00565 11.9265 4.86714C11.9265 4.72863 11.9538 4.59148 12.0068 4.46351C12.0598 4.33555 12.1375 4.21928 12.2354 4.12134C12.3333 4.0234 12.4496 3.94571 12.5776 3.8927C12.7055 3.8397 12.8427 3.81242 12.9812 3.81242C13.2609 3.81242 13.5292 3.92354 13.727 4.12134C13.9248 4.31914 14.0359 4.58741 14.0359 4.86714C14.0359 5.14687 13.9248 5.41514 13.727 5.61294C13.5292 5.81074 13.2609 5.92186 12.9812 5.92186Z" fill="#999999"/>
</svg>
