<svg width="27" height="9" viewBox="0 0 27 9" fill="none" xmlns="http://www.w3.org/2000/svg">
<path d="M21.9459 6.81853e-09C23.0655 -6.23583e-05 24.1427 0.42769 24.9573 1.19574C25.7719 1.96378 26.2621 3.01407 26.3278 4.13169L26.3351 4.38919V7.31531C26.3351 7.70334 26.181 8.07548 25.9066 8.34985C25.6322 8.62423 25.2601 8.77838 24.8721 8.77838H13.1676C12.7795 8.77838 12.4074 8.62423 12.133 8.34985C11.8586 8.07548 11.7045 7.70334 11.7045 7.31531V1.46306C11.7045 1.07503 11.8586 0.702899 12.133 0.428521C12.4074 0.154144 12.7795 6.81853e-09 13.1676 6.81853e-09H21.9459ZM8.77838 1.46306V7.31531C8.77838 7.70334 8.62423 8.07548 8.34985 8.34985C8.07548 8.62423 7.70334 8.77838 7.31531 8.77838H1.46306C1.07503 8.77838 0.702899 8.62423 0.428521 8.34985C0.154144 8.07548 6.81853e-09 7.70334 6.81853e-09 7.31531V4.38919C-6.23583e-05 3.26964 0.42769 2.19238 1.19574 1.37782C1.96378 0.563269 3.01407 0.0729958 4.13169 0.00731549L4.38919 6.81853e-09H7.31531C7.70334 6.81853e-09 8.07548 0.154144 8.34985 0.428521C8.62423 0.702899 8.77838 1.07503 8.77838 1.46306Z" fill="#999999"/>
</svg>
