<svg width="16" height="20" viewBox="0 0 16 20" fill="none" xmlns="http://www.w3.org/2000/svg">
<path fill-rule="evenodd" clip-rule="evenodd" d="M10.6429 0C10.9826 8.62891e-06 11.3162 0.0894252 11.6104 0.259263C11.9046 0.4291 12.1488 0.673375 12.3187 0.967536H13.5455C14.0587 0.967536 14.5509 1.17141 14.9138 1.5343C15.2767 1.8972 15.4806 2.38939 15.4806 2.90261V14.513C15.4806 15.7961 14.9709 17.0265 14.0636 17.9338C13.1564 18.841 11.9259 19.3507 10.6429 19.3507H1.93507C1.42186 19.3507 0.929665 19.1468 0.566769 18.7839C0.203873 18.421 0 17.9289 0 17.4156V2.90261C0 2.38939 0.203873 1.8972 0.566769 1.5343C0.929665 1.17141 1.42186 0.967536 1.93507 0.967536H3.16191C3.33174 0.673375 3.57601 0.4291 3.87017 0.259263C4.16433 0.0894252 4.49801 8.62891e-06 4.83768 0H10.6429ZM10.4726 7.13945L6.36832 11.2447L4.99926 9.87564C4.81678 9.69939 4.57237 9.60187 4.31869 9.60407C4.06501 9.60628 3.82234 9.70803 3.64295 9.88742C3.46356 10.0668 3.3618 10.3095 3.3596 10.5632C3.35739 10.8169 3.45492 11.0613 3.63116 11.2437L5.61461 13.2281C5.71344 13.327 5.83079 13.4055 5.95995 13.459C6.08911 13.5125 6.22754 13.54 6.36735 13.54C6.50716 13.54 6.64559 13.5125 6.77475 13.459C6.90391 13.4055 7.02126 13.327 7.12009 13.2281L11.8417 8.50754C11.9315 8.41765 12.0027 8.31094 12.0513 8.19351C12.0999 8.07608 12.1249 7.95024 12.1249 7.82315C12.1248 7.69607 12.0997 7.57024 12.0511 7.45284C12.0024 7.33545 11.9311 7.22879 11.8412 7.13896C11.7513 7.04913 11.6446 6.97789 11.5272 6.9293C11.4097 6.8807 11.2839 6.85572 11.1568 6.85576C11.0297 6.85581 10.9039 6.88088 10.7865 6.92956C10.6691 6.97823 10.5624 7.04955 10.4726 7.13945ZM10.1591 1.93507H5.32144C5.20822 1.93503 5.09857 1.97471 5.01158 2.0472C4.9246 2.11968 4.8658 2.22038 4.84542 2.33176L4.83768 2.41884V3.38637C4.83764 3.4996 4.87732 3.60925 4.9498 3.69624C5.02229 3.78322 5.12299 3.84202 5.23437 3.8624L5.32144 3.87014H10.1591C10.2723 3.87018 10.382 3.8305 10.469 3.75802C10.556 3.68553 10.6148 3.58483 10.6351 3.47345L10.6429 3.38637V2.41884C10.6429 2.30561 10.6032 2.19596 10.5308 2.10898C10.4583 2.02199 10.3576 1.96319 10.2462 1.94281L10.1591 1.93507Z" fill="#FF0000"/>
</svg>
