<svg width="17" height="17" viewBox="0 0 17 17" fill="none" xmlns="http://www.w3.org/2000/svg">
<path d="M15.9841 15.9841L12.1028 12.1028M12.1028 12.1028C12.7258 11.4799 13.2199 10.7403 13.5571 9.92636C13.8942 9.11243 14.0677 8.24006 14.0677 7.35907C14.0677 6.47807 13.8942 5.6057 13.5571 4.79177C13.2199 3.97783 12.7258 3.23827 12.1028 2.61532C11.4799 1.99236 10.7403 1.4982 9.92637 1.16106C9.11243 0.823915 8.24006 0.650391 7.35907 0.650391C6.47807 0.650391 5.6057 0.823915 4.79177 1.16106C3.97783 1.4982 3.23827 1.99236 2.61532 2.61532C1.3572 3.87344 0.650391 5.57981 0.650391 7.35907C0.650391 9.13832 1.3572 10.8447 2.61532 12.1028C3.87344 13.3609 5.57982 14.0677 7.35907 14.0677C9.13832 14.0677 10.8447 13.3609 12.1028 12.1028Z" stroke="#999999" stroke-width="1.3" stroke-linecap="round" stroke-linejoin="round"/>
</svg>
