<svg width="17" height="17" viewBox="0 0 17 17" fill="none" xmlns="http://www.w3.org/2000/svg">
<path d="M7.59036 1.37626C7.62282 1.20249 7.71503 1.04553 7.85103 0.932587C7.98703 0.81964 8.15824 0.757812 8.33502 0.757812C8.51181 0.757812 8.68302 0.81964 8.81902 0.932587C8.95501 1.04553 9.04723 1.20249 9.07968 1.37626L9.87586 5.58667C9.93241 5.88601 10.0779 6.16135 10.2933 6.37676C10.5087 6.59217 10.784 6.73764 11.0834 6.79419L15.2938 7.59036C15.4676 7.62282 15.6245 7.71503 15.7375 7.85103C15.8504 7.98703 15.9122 8.15824 15.9122 8.33502C15.9122 8.51181 15.8504 8.68302 15.7375 8.81902C15.6245 8.95501 15.4676 9.04723 15.2938 9.07968L11.0834 9.87586C10.784 9.93241 10.5087 10.0779 10.2933 10.2933C10.0779 10.5087 9.93241 10.784 9.87586 11.0834L9.07968 15.2938C9.04723 15.4676 8.95501 15.6245 8.81902 15.7375C8.68302 15.8504 8.51181 15.9122 8.33502 15.9122C8.15824 15.9122 7.98703 15.8504 7.85103 15.7375C7.71503 15.6245 7.62282 15.4676 7.59036 15.2938L6.79419 11.0834C6.73764 10.784 6.59217 10.5087 6.37676 10.2933C6.16135 10.0779 5.88601 9.93241 5.58667 9.87586L1.37626 9.07968C1.20249 9.04723 1.04553 8.95501 0.932587 8.81902C0.81964 8.68302 0.757812 8.51181 0.757812 8.33502C0.757812 8.15824 0.81964 7.98703 0.932587 7.85103C1.04553 7.71503 1.20249 7.62282 1.37626 7.59036L5.58667 6.79419C5.88601 6.73764 6.16135 6.59217 6.37676 6.37676C6.59217 6.16135 6.73764 5.88601 6.79419 5.58667L7.59036 1.37626Z" stroke="#9810FA" stroke-width="1.51508" stroke-linecap="round" stroke-linejoin="round"/>
</svg>
