<svg width="16" height="16" viewBox="0 0 16 16" fill="none" xmlns="http://www.w3.org/2000/svg">
<path d="M9.03221 0.625L1.73221 7.925C1.45096 8.20625 1.31096 8.34625 1.22221 8.52C1.13221 8.69375 1.09971 8.89 1.03471 9.2825L0.0597135 15.1287C-0.00528647 15.5212 -0.0390364 15.7187 0.0747136 15.8325C0.188464 15.9462 0.385964 15.9125 0.778464 15.8475L6.62596 14.8725C7.01721 14.8075 7.21346 14.775 7.38846 14.685C7.56096 14.5963 7.70096 14.4563 7.98221 14.175L15.2822 6.875C15.6985 6.45875 15.9072 6.25 15.9072 5.99125C15.9072 5.7325 15.6985 5.52375 15.2822 5.1075L10.7997 0.625C10.3835 0.20875 10.1747 0 9.91596 0C9.65721 0 9.44846 0.20875 9.03221 0.625Z" fill="#0088FF"/>
</svg>
