<svg width="30" height="30" viewBox="0 0 30 30" fill="none" xmlns="http://www.w3.org/2000/svg">
<path opacity="0.5" d="M29.2612 11.7045H0V24.8721C0 26.0361 0.462431 27.1526 1.28556 27.9757C2.1087 28.7988 3.2251 29.2612 4.38919 29.2612H24.8721C26.0361 29.2612 27.1526 28.7988 27.9757 27.9757C28.7988 27.1526 29.2612 26.0361 29.2612 24.8721V11.7045ZM7.31531 8.77838C6.92728 8.77838 6.55515 8.62423 6.28077 8.34985C6.00639 8.07548 5.85225 7.70334 5.85225 7.31531V1.46306C5.85225 1.07503 6.00639 0.702898 6.28077 0.428521C6.55515 0.154144 6.92728 0 7.31531 0C7.70334 0 8.07548 0.154144 8.34985 0.428521C8.62423 0.702898 8.77838 1.07503 8.77838 1.46306V7.31531C8.77838 7.70334 8.62423 8.07548 8.34985 8.34985C8.07548 8.62423 7.70334 8.77838 7.31531 8.77838ZM21.9459 8.77838C21.5579 8.77838 21.1858 8.62423 20.9114 8.34985C20.637 8.07548 20.4829 7.70334 20.4829 7.31531V1.46306C20.4829 1.07503 20.637 0.702898 20.9114 0.428521C21.1858 0.154144 21.5579 0 21.9459 0C22.334 0 22.7061 0.154144 22.9805 0.428521C23.2549 0.702898 23.409 1.07503 23.409 1.46306V7.31531C23.409 7.70334 23.2549 8.07548 22.9805 8.34985C22.7061 8.62423 22.334 8.77838 21.9459 8.77838Z" fill="#999999"/>
</svg>
