<svg width="30" height="9" viewBox="0 0 30 9" fill="none" xmlns="http://www.w3.org/2000/svg">
<path d="M24.8721 0H23.409V4.38919C23.409 4.77722 23.2549 5.14935 22.9805 5.42373C22.7061 5.69811 22.334 5.85225 21.9459 5.85225C21.5579 5.85225 21.1858 5.69811 20.9114 5.42373C20.637 5.14935 20.4829 4.77722 20.4829 4.38919V0H8.77838V4.38919C8.77838 4.77722 8.62423 5.14935 8.34985 5.42373C8.07548 5.69811 7.70334 5.85225 7.31531 5.85225C6.92728 5.85225 6.55515 5.69811 6.28077 5.42373C6.00639 5.14935 5.85225 4.77722 5.85225 4.38919V0H4.38919C3.2251 0 2.1087 0.462431 1.28556 1.28556C0.462431 2.1087 0 3.2251 0 4.38919V8.77838H29.2612V4.38919C29.2612 3.2251 28.7988 2.1087 27.9757 1.28556C27.1526 0.462431 26.0361 0 24.8721 0Z" fill="#999999"/>
</svg>
